<svg width="24" height="25" viewBox="0 0 24 25" fill="none" xmlns="http://www.w3.org/2000/svg">
<path fill-rule="evenodd" clip-rule="evenodd" d="M24 3.25781C24 1.60205 22.6558 0.257812 21 0.257812H3C1.34423 0.257812 0 1.60205 0 3.25781V21.2578C0 22.9136 1.34423 24.2578 3 24.2578H21C22.6558 24.2578 24 22.9136 24 21.2578V3.25781Z" fill="#C3F07B"/>
<path d="M6.88157 8.63184H2.86157V20.7238H6.88157V8.63184Z" fill="#000957"/>
<path d="M4.899 2.80176C3.52364 2.80176 2.625 3.70598 2.625 4.89112C2.625 6.05137 3.49631 6.98052 4.8458 6.98052H4.87177C6.27347 6.98052 7.14595 6.05137 7.14595 4.89112C7.11994 3.70598 6.27356 2.80176 4.899 2.80176Z" fill="#000957"/>
<path d="M16.7475 8.34766C14.6151 8.34766 13.66 9.52033 13.1252 10.344V8.632H9.1062C9.1595 9.76623 9.1062 20.7239 9.1062 20.7239H13.1251V13.9709C13.1251 13.6095 13.1511 13.2481 13.2576 12.9898C13.5477 12.2679 14.2094 11.5202 15.3198 11.5202C16.7735 11.5202 17.3559 12.6294 17.3559 14.2542V20.7239H21.375V13.7897C21.375 10.0755 19.3919 8.34766 16.7475 8.34766Z" fill="#000957"/>
</svg>
