<svg width="20" height="15" viewBox="0 0 20 15" fill="none" xmlns="http://www.w3.org/2000/svg">
<path d="M12.9594 8.58789L11.2844 10.2688C10.6051 10.9504 9.40977 10.9652 8.71602 10.2688L7.04102 8.58789L1.02461 14.6238C1.24844 14.7273 1.49531 14.7891 1.75781 14.7891H18.2422C18.5047 14.7891 18.7516 14.7273 18.9754 14.6238L12.9594 8.58789Z" fill="#C3F07B"/>
<path d="M18.2422 0.726562H1.75781C1.49531 0.726562 1.24844 0.788281 1.02461 0.891797L7.45352 7.3418C7.45352 7.3418 7.4543 7.34219 7.45508 7.34258C7.45586 7.34297 7.45547 7.34375 7.45547 7.34375L9.5457 9.44102C9.76758 9.66289 10.2328 9.66289 10.4547 9.44102L12.5445 7.34414C12.5445 7.34414 12.5449 7.34336 12.5453 7.34258C12.5453 7.34258 12.5461 7.34219 12.5469 7.3418L18.9754 0.891797C18.7516 0.788281 18.5047 0.726562 18.2422 0.726562Z" fill="#C3F07B"/>
<path d="M0.187109 1.71133C0.0710938 1.9457 0 2.20586 0 2.48437V13.0312C0 13.3098 0.0710938 13.5699 0.186719 13.8043L6.21328 7.7582L0.187109 1.71133Z" fill="#C3F07B"/>
<path d="M19.8129 1.71133L13.7863 7.7582L19.8129 13.8047C19.9289 13.5703 20 13.3102 20 13.0316V2.48437C20 2.20586 19.9289 1.9457 19.8129 1.71133Z" fill="#C3F07B"/>
</svg>
