<svg width="24" height="25" viewBox="0 0 24 25" fill="none" xmlns="http://www.w3.org/2000/svg">
<path d="M21.1875 0.257812H2.8125C1.26187 0.257812 0 1.51969 0 3.07031V21.4453C0 22.9959 1.26187 24.2578 2.8125 24.2578H21.1875C22.7381 24.2578 24 22.9959 24 21.4453V3.07031C24 1.51969 22.7381 0.257812 21.1875 0.257812ZM22.125 21.4453C22.125 21.9623 21.7045 22.3828 21.1875 22.3828H15.8438V14.7422H18.7402L19.2188 11.8359H15.8438V9.82031C15.8438 9.02437 16.4541 8.41406 17.25 8.41406H19.1719V5.50781H17.25C14.8631 5.50781 12.9384 7.44141 12.9384 9.82828V11.8359H10.125V14.7422H12.9384V22.3828H2.8125C2.29547 22.3828 1.875 21.9623 1.875 21.4453V3.07031C1.875 2.55328 2.29547 2.13281 2.8125 2.13281H21.1875C21.7045 2.13281 22.125 2.55328 22.125 3.07031V21.4453Z" fill="#C3F07B"/>
</svg>
