<svg width="16" height="15" viewBox="0 0 16 15" fill="none" xmlns="http://www.w3.org/2000/svg">
<path d="M11.9551 11.0371H4.04492V12.1399H11.9551V11.0371Z" fill="#000957"/>
<path d="M11.9551 13.0185H4.04492V14.1212H11.9551V13.0185Z" fill="#000957"/>
<path d="M11.9551 9.05548H4.04492V10.1582H11.9551V9.05548Z" fill="#000957"/>
<path d="M15.3482 6.22541L8.2877 0.107339C8.12246 -0.0359222 7.87725 -0.0359222 7.71201 0.107339L0.651758 6.22541C0.555371 6.3089 0.5 6.43019 0.5 6.55763V14.5607C0.5 14.8032 0.696875 15.0001 0.939453 15.0001H3.16602V8.61603C3.16602 8.37345 3.36289 8.17658 3.60547 8.17658H12.3945C12.6371 8.17658 12.834 8.37345 12.834 8.61603V15.0001H15.0605C15.3031 15.0001 15.5 14.8032 15.5 14.5607V6.55763C15.5 6.43019 15.4446 6.3089 15.3482 6.22541ZM8.82676 4.934H7.17353C6.93096 4.934 6.73408 4.73712 6.73408 4.49455C6.73408 4.25197 6.93096 4.05509 7.17353 4.05509H8.82676C9.06934 4.05509 9.26621 4.25197 9.26621 4.49455C9.26621 4.73712 9.06934 4.934 8.82676 4.934Z" fill="#000957"/>
</svg>
