<svg width="15" height="14" viewBox="0 0 15 14" fill="none" xmlns="http://www.w3.org/2000/svg">
<path d="M8.88691 1.39757C7.95557 0.833039 6.85166 0.522705 5.71143 0.522705C2.60742 0.522705 -0.00146484 2.79493 -0.00146484 5.70453C-0.00146484 6.72448 0.321094 7.70241 0.933691 8.54704L0.0779297 11.1872C-0.0125977 11.4661 0.200098 11.75 0.496875 11.75C0.564844 11.75 0.633105 11.7344 0.696094 11.7031L3.29854 10.4027C3.404 10.4473 3.51064 10.4888 3.61846 10.5274C3.01582 9.60327 2.69414 8.54244 2.69414 7.4318C2.69414 4.12407 5.52656 1.58124 8.88721 1.39757H8.88691Z" fill="#000957"/>
<path d="M14.0634 10.2743C14.676 9.42968 14.9985 8.45175 14.9985 7.4318C14.9985 4.52134 12.3885 2.24998 9.28564 2.24998C6.18281 2.24998 3.57275 4.52221 3.57275 7.4318C3.57275 10.3414 6.18281 12.6136 9.28564 12.6136C10.1183 12.6136 10.9477 12.4469 11.6985 12.13L14.3013 13.4303C14.4592 13.5092 14.6499 13.4873 14.785 13.3745C14.92 13.2616 14.973 13.0803 14.9191 12.9145L14.0634 10.2743ZM7.49854 7.86362C7.25596 7.86362 7.05908 7.67016 7.05908 7.4318C7.05908 7.19344 7.25596 6.99998 7.49854 6.99998C7.74111 6.99998 7.93799 7.19344 7.93799 7.4318C7.93799 7.67016 7.74111 7.86362 7.49854 7.86362ZM9.25635 7.86362C9.01377 7.86362 8.81689 7.67016 8.81689 7.4318C8.81689 7.19344 9.01377 6.99998 9.25635 6.99998C9.49893 6.99998 9.6958 7.19344 9.6958 7.4318C9.6958 7.67016 9.49893 7.86362 9.25635 7.86362ZM11.0142 7.86362C10.7716 7.86362 10.5747 7.67016 10.5747 7.4318C10.5747 7.19344 10.7716 6.99998 11.0142 6.99998C11.2567 6.99998 11.4536 7.19344 11.4536 7.4318C11.4536 7.67016 11.2567 7.86362 11.0142 7.86362Z" fill="#000957"/>
</svg>
