<svg width="16" height="15" viewBox="0 0 16 15" fill="none" xmlns="http://www.w3.org/2000/svg">
<path d="M6.68164 7.95455H9.31836V8.86364H6.68164V7.95455Z" fill="#000957"/>
<path d="M12.6693 8.86364H10.1973V9.31819C10.1973 9.5694 10.0007 9.77273 9.75781 9.77273H6.24219C5.99932 9.77273 5.80273 9.5694 5.80273 9.31819V8.86364H3.33066C2.7626 8.86364 2.25986 8.4891 2.07998 7.93152L0.5 3.02758V12.9546C0.5 13.7064 1.0915 14.3182 1.81836 14.3182H14.1816C14.9085 14.3182 15.5 13.7064 15.5 12.9546V3.02788L13.9197 7.93152C13.7398 8.4891 13.2374 8.86364 12.6693 8.86364Z" fill="#000957"/>
<path d="M9.75781 0.681824H6.24219C5.51533 0.681824 4.92383 1.29364 4.92383 2.04546V2.50001H1.25615L2.91348 7.64395C2.97354 7.83001 3.14141 7.95455 3.33066 7.95455H5.80273V7.50001C5.80273 7.24879 5.99932 7.04546 6.24219 7.04546H9.75781C10.0007 7.04546 10.1973 7.24879 10.1973 7.50001V7.95455H12.6693C12.8586 7.95455 13.0265 7.8297 13.0865 7.64395L14.7441 2.50001H11.0762V2.04546C11.0762 1.29364 10.4847 0.681824 9.75781 0.681824ZM5.80273 2.50001V2.04546C5.80273 1.79455 5.99961 1.59091 6.24219 1.59091H9.75781C10.0004 1.59091 10.1973 1.79455 10.1973 2.04546V2.50001H5.80273Z" fill="#000957"/>
</svg>
