<svg width="16" height="12" viewBox="0 0 16 12" fill="none" xmlns="http://www.w3.org/2000/svg">
<path d="M9.90166 6.62256L8.64541 7.8832C8.13594 8.39443 7.23945 8.40557 6.71914 7.8832L5.46289 6.62256L0.950585 11.1495C1.11846 11.2271 1.30361 11.2734 1.50049 11.2734H13.8638C14.0606 11.2734 14.2458 11.2271 14.4137 11.1495L9.90166 6.62256Z" fill="#000957"/>
<path d="M13.8638 0.726562H1.50049C1.30361 0.726562 1.11846 0.772852 0.950585 0.850488L5.77227 5.68799C5.77227 5.68799 5.77285 5.68828 5.77344 5.68857C5.77402 5.68887 5.77373 5.68945 5.77373 5.68945L7.34141 7.2624C7.50781 7.42881 7.85674 7.42881 8.02315 7.2624L9.59053 5.68975C9.59053 5.68975 9.59082 5.68916 9.59111 5.68857C9.59111 5.68857 9.5917 5.68828 9.59229 5.68799L14.4137 0.850488C14.2458 0.772852 14.0606 0.726562 13.8638 0.726562Z" fill="#000957"/>
<path d="M0.322461 1.46514C0.235449 1.64092 0.182129 1.83603 0.182129 2.04492V9.95508C0.182129 10.164 0.235449 10.3591 0.322168 10.5349L4.84209 6.00029L0.322461 1.46514Z" fill="#000957"/>
<path d="M15.0418 1.46514L10.5219 6.00029L15.0418 10.5352C15.1288 10.3594 15.1821 10.1643 15.1821 9.95537V2.04492C15.1821 1.83603 15.1288 1.64092 15.0418 1.46514Z" fill="#000957"/>
</svg>
