<svg width="16" height="15" viewBox="0 0 16 15" fill="none" xmlns="http://www.w3.org/2000/svg">
<path d="M8.4399 0C7.47047 0 6.6528 0.81767 6.6528 1.7871C6.6528 2.75652 7.47047 3.57419 8.4399 3.57419C9.40932 3.57419 10.1977 2.75652 10.1977 1.7871C10.1977 0.81767 9.40961 0 8.4399 0Z" fill="#000957"/>
<path d="M10.3911 3.57419C9.90795 4.10974 9.21626 4.45309 8.44019 4.45309C7.66412 4.45309 6.94284 4.10974 6.46003 3.57419C6.03845 4.04177 5.77419 4.65436 5.77419 5.33199V5.77144C5.77419 6.01431 5.97077 6.21089 6.21364 6.21089H10.6374C10.8803 6.21089 11.0769 6.01431 11.0769 5.77144V5.33199C11.0769 4.65436 10.8126 4.04177 10.3911 3.57419Z" fill="#000957"/>
<path d="M4.74617 13.4882L2.50674 8.99817C2.29053 8.56458 1.76407 8.38793 1.33018 8.60296L0.744835 8.893C0.526868 9.0011 0.438099 9.26595 0.547083 9.48362L3.18378 14.757C3.29218 14.9744 3.55585 15.0611 3.77206 14.9545L4.34979 14.6682C4.78572 14.4523 4.96326 13.9235 4.74617 13.4885V13.4882Z" fill="#000957"/>
<path d="M15.1403 7.25678C14.78 6.99311 14.279 7.04585 13.9802 7.37104L11.5779 10.3241C11.4109 10.4999 11.0945 10.6054 10.9275 10.6054H8.87964C8.63355 10.6054 8.44019 10.412 8.44019 10.1659C8.44019 9.91985 8.63355 9.72649 8.87964 9.72649H10.6374C11.1208 9.72649 11.5163 9.33099 11.5163 8.84759C11.5163 8.36419 11.1208 7.96869 10.6374 7.96869H8.33472C8.11558 7.96869 8.0066 7.82982 7.83375 7.67865C7.15377 7.06694 6.13601 6.77192 5.10564 7.01098C4.53348 7.1437 4.14764 7.37455 3.75653 7.68451L3.74364 7.67397L3.1079 8.23324L5.60574 13.2421H10.6374C11.4636 13.2421 12.2546 12.8466 12.7468 12.1874L15.3249 8.49603C15.6149 8.10931 15.5358 7.54682 15.1403 7.25678Z" fill="#000957"/>
</svg>
