<svg width="24" height="25" viewBox="0 0 24 25" fill="none" xmlns="http://www.w3.org/2000/svg">
<path d="M12 2.42081C15.204 2.42081 15.584 2.43281 16.85 2.49081C20.102 2.63881 21.621 4.18181 21.769 7.40981C21.827 8.67481 21.838 9.05481 21.838 12.2588C21.838 15.4638 21.826 15.8428 21.769 17.1078C21.62 20.3328 20.105 21.8788 16.85 22.0268C15.584 22.0848 15.206 22.0968 12 22.0968C8.796 22.0968 8.416 22.0848 7.151 22.0268C3.891 21.8778 2.38 20.3278 2.232 17.1068C2.174 15.8418 2.162 15.4628 2.162 12.2578C2.162 9.05381 2.175 8.67481 2.232 7.40881C2.381 4.18181 3.896 2.63781 7.151 2.48981C8.417 2.43281 8.796 2.42081 12 2.42081ZM12 0.257813C8.741 0.257813 8.333 0.271812 7.053 0.329812C2.695 0.529813 0.273 2.94781 0.073 7.30981C0.014 8.59081 0 8.99881 0 12.2578C0 15.5168 0.014 15.9258 0.072 17.2058C0.272 21.5638 2.69 23.9858 7.052 24.1858C8.333 24.2438 8.741 24.2578 12 24.2578C15.259 24.2578 15.668 24.2438 16.948 24.1858C21.302 23.9858 23.73 21.5678 23.927 17.2058C23.986 15.9258 24 15.5168 24 12.2578C24 8.99881 23.986 8.59081 23.928 7.31081C23.732 2.95681 21.311 0.530813 16.949 0.330812C15.668 0.271812 15.259 0.257813 12 0.257813ZM12 6.09581C8.597 6.09581 5.838 8.85481 5.838 12.2578C5.838 15.6608 8.597 18.4208 12 18.4208C15.403 18.4208 18.162 15.6618 18.162 12.2578C18.162 8.85481 15.403 6.09581 12 6.09581ZM12 16.2578C9.791 16.2578 8 14.4678 8 12.2578C8 10.0488 9.791 8.25781 12 8.25781C14.209 8.25781 16 10.0488 16 12.2578C16 14.4678 14.209 16.2578 12 16.2578ZM18.406 4.41281C17.61 4.41281 16.965 5.05781 16.965 5.85281C16.965 6.64781 17.61 7.29281 18.406 7.29281C19.201 7.29281 19.845 6.64781 19.845 5.85281C19.845 5.05781 19.201 4.41281 18.406 4.41281Z" fill="#C3F07B"/>
</svg>
