<svg width="14" height="16" viewBox="0 0 14 16" fill="none" xmlns="http://www.w3.org/2000/svg">
<path d="M6.59033 0.5C4.40947 0.5 2.63525 2.27422 2.63525 4.45508C2.63525 6.63594 4.40947 8.41016 6.59033 8.41016C8.77119 8.41016 10.5454 6.63594 10.5454 4.45508C10.5454 2.27422 8.77119 0.5 6.59033 0.5Z" fill="#000957"/>
<path d="M11.5113 10.9941C10.4285 9.89463 8.99297 9.28906 7.46924 9.28906H5.71143C4.1877 9.28906 2.75215 9.89463 1.66934 10.9941C0.59209 12.0881 -0.00146484 13.5321 -0.00146484 15.0605C-0.00146484 15.3031 0.19541 15.5 0.437988 15.5H12.7427C12.9853 15.5 13.1821 15.3031 13.1821 15.0605C13.1821 13.5321 12.5886 12.0881 11.5113 10.9941Z" fill="#000957"/>
</svg>
