<svg width="15" height="16" viewBox="0 0 15 16" fill="none" xmlns="http://www.w3.org/2000/svg">
<path d="M14.612 11.5678L12.7479 9.7031C12.2504 9.20565 11.3815 9.20477 10.8831 9.7031L10.5723 10.0139L14.3012 13.7428L14.612 13.432C15.1282 12.9158 15.1265 12.0814 14.612 11.5678Z" fill="#000957"/>
<path d="M9.9336 10.6183C9.54131 10.9221 8.98174 10.9101 8.62315 10.5509L4.937 6.86251C4.57782 6.50334 4.56551 5.94319 4.86962 5.55178L1.14919 1.83142C-0.451302 3.69702 -0.388606 6.50802 1.37771 8.2746L7.21074 14.1102C8.90586 15.8053 11.6823 16.03 13.654 14.3387L9.93331 10.6183H9.9336Z" fill="#000957"/>
<path d="M5.78456 2.73815L3.92039 0.873421C3.42293 0.375966 2.55398 0.375087 2.05564 0.873421L1.7448 1.18426L5.47372 4.91312L5.78456 4.60228C6.30077 4.08608 6.29902 3.25171 5.78456 2.73815Z" fill="#000957"/>
</svg>
