<svg width="20" height="21" viewBox="0 0 20 21" fill="none" xmlns="http://www.w3.org/2000/svg">
<path d="M19.4847 15.5149L16.9991 13.0286C16.3358 12.3653 15.1772 12.3642 14.5128 13.0286L14.0983 13.4431L19.0702 18.4149L19.4847 18.0004C20.1729 17.3122 20.1706 16.1997 19.4847 15.5149Z" fill="#C3F07B"/>
<path d="M13.2468 14.2489C12.7237 14.654 11.9776 14.638 11.4995 14.1591L6.58462 9.24116C6.10571 8.76226 6.0893 8.01539 6.49477 7.49352L1.53421 2.53304C-0.599783 5.02051 -0.516189 8.76851 1.8389 11.1239L9.61627 18.9047C11.8764 21.1648 15.5784 21.4645 18.2073 19.2094L13.2464 14.2489H13.2468Z" fill="#C3F07B"/>
<path d="M7.7147 3.74201L5.22914 1.25571C4.56586 0.592434 3.40726 0.591262 2.74281 1.25571L2.32835 1.67016L7.30025 6.64197L7.7147 6.22752C8.40298 5.53925 8.40064 4.42676 7.7147 3.74201Z" fill="#C3F07B"/>
</svg>
