<svg width="15" height="13" viewBox="0 0 15 13" fill="none" xmlns="http://www.w3.org/2000/svg">
<path d="M8.88838 0.8976C7.95703 0.333069 6.85313 0.0227356 5.71289 0.0227356C2.60889 0.0227356 0 2.29496 0 5.20456C0 6.22451 0.322559 7.20244 0.935156 8.04707L0.0793945 10.6872C-0.0111328 10.9662 0.201563 11.25 0.49834 11.25C0.566309 11.25 0.63457 11.2345 0.697559 11.2031L3.3 9.90274C3.40547 9.94736 3.51211 9.98882 3.61992 10.0274C3.01729 9.1033 2.69561 8.04247 2.69561 6.93183C2.69561 3.6241 5.52803 1.08127 8.88867 0.8976H8.88838Z" fill="#000957"/>
<path d="M14.0648 9.77435C14.6774 8.92971 15 7.95179 15 6.93183C15 4.02137 12.3899 1.75001 9.28711 1.75001C6.18428 1.75001 3.57422 4.02224 3.57422 6.93183C3.57422 9.84142 6.18428 12.1137 9.28711 12.1137C10.1197 12.1137 10.9491 11.947 11.7 11.63L14.3027 12.9304C14.4606 13.0092 14.6514 12.9874 14.7864 12.8745C14.9215 12.7617 14.9745 12.5803 14.9206 12.4145L14.0648 9.77435ZM7.5 7.36365C7.25742 7.36365 7.06055 7.17019 7.06055 6.93183C7.06055 6.69347 7.25742 6.50001 7.5 6.50001C7.74258 6.50001 7.93945 6.69347 7.93945 6.93183C7.93945 7.17019 7.74258 7.36365 7.5 7.36365ZM9.25781 7.36365C9.01523 7.36365 8.81836 7.17019 8.81836 6.93183C8.81836 6.69347 9.01523 6.50001 9.25781 6.50001C9.50039 6.50001 9.69727 6.69347 9.69727 6.93183C9.69727 7.17019 9.50039 7.36365 9.25781 7.36365ZM11.0156 7.36365C10.773 7.36365 10.5762 7.17019 10.5762 6.93183C10.5762 6.69347 10.773 6.50001 11.0156 6.50001C11.2582 6.50001 11.4551 6.69347 11.4551 6.93183C11.4551 7.17019 11.2582 7.36365 11.0156 7.36365Z" fill="#000957"/>
</svg>
