<svg width="16" height="15" viewBox="0 0 16 15" fill="none" xmlns="http://www.w3.org/2000/svg">
<path d="M15.1135 11.0678L13.2493 9.2031C12.7519 8.70565 11.8829 8.70477 11.3846 9.2031L11.0737 9.51394L14.8027 13.2428L15.1135 12.932C15.6297 12.4158 15.628 11.5814 15.1135 11.0678Z" fill="#000957"/>
<path d="M10.4351 10.1183C10.0428 10.4221 9.48321 10.4101 9.12461 10.0509L5.43846 6.36251C5.07928 6.00334 5.06698 5.44319 5.37108 5.05178L1.65066 1.33142C0.0501627 3.19702 0.112858 6.00802 1.87917 7.7746L7.7122 13.6102C9.40733 15.3053 12.1838 15.53 14.1555 13.8387L10.4348 10.1183H10.4351Z" fill="#000957"/>
<path d="M6.28603 2.23815L4.42186 0.373421C3.9244 -0.124034 3.05545 -0.124913 2.55711 0.373421L2.24626 0.684257L5.97518 4.41312L6.28603 4.10228C6.80224 3.58608 6.80048 2.75171 6.28603 2.23815Z" fill="#000957"/>
</svg>
