<svg width="69" height="60" viewBox="0 0 69 60" fill="none" xmlns="http://www.w3.org/2000/svg">
<path d="M69 0V36.2437L46 60H0V0H69Z" fill="#FF6500"/>
<path d="M43.7619 38.4823C42.2213 36.9417 39.7143 36.9417 38.1737 38.4823L36.7245 39.9314C36.7199 39.9361 36.1667 40.4205 35.0566 40.4205C33.7598 40.4205 31.5512 39.758 28.3966 36.6034C25.356 33.5628 24.6451 31.4058 24.5842 30.1324C24.5271 28.9403 25.0248 28.3285 25.0826 28.2614L26.5169 26.827C27.263 26.0809 27.6747 25.088 27.6747 24.0325C27.6747 22.9771 27.2638 21.9849 26.5169 21.2388L23.7912 18.5131C22.2506 16.9725 19.7436 16.9725 18.203 18.5131L16.7538 19.9623C16.7257 19.9904 16.6984 20.0201 16.6734 20.0514C16.6015 20.1396 14.9086 22.2662 15.0039 26.07C15.0578 28.2231 15.6695 30.498 16.821 32.8316C18.2226 35.6714 20.4397 38.6182 23.4107 41.5892C26.3818 44.5603 29.3286 46.7774 32.1684 48.1789C34.5019 49.3305 36.7769 49.9422 38.93 49.9961C39.0339 49.9984 39.137 50 39.2386 50C42.8479 50 44.8619 48.3969 44.9478 48.3266C44.9791 48.3016 45.0088 48.2743 45.0369 48.2461L46.4861 46.7969C47.2322 46.0509 47.6439 45.0579 47.6431 44.0025C47.6431 42.947 47.2322 41.9548 46.4861 41.208L43.7603 38.4823H43.7619Z" fill="#000957"/>
<path d="M44.7283 10C39.0643 10 34.4566 14.6077 34.4566 20.2717C34.4566 24.3614 36.8831 28.0371 40.5745 29.6684V32.3535C40.5745 32.773 40.7987 33.1605 41.1627 33.3699C41.3432 33.4738 41.5448 33.5253 41.7463 33.5253C41.9479 33.5253 42.1549 33.4722 42.3369 33.3652L48.2048 29.9395C52.2742 28.4762 55 24.6067 55 20.2717C55 14.6077 50.3923 10 44.7283 10ZM45.9001 21.4435V22.8091C45.9001 23.456 45.3752 23.981 44.7283 23.981C44.0814 23.981 43.5564 23.456 43.5564 22.8091V21.4435H42.1908C41.544 21.4435 41.019 20.9185 41.019 20.2717C41.019 19.6248 41.544 19.0998 42.1908 19.0998H43.5564V17.7342C43.5564 17.0874 44.0814 16.5624 44.7283 16.5624C45.3752 16.5624 45.9001 17.0874 45.9001 17.7342V19.0998H47.2657C47.9126 19.0998 48.4376 19.6248 48.4376 20.2717C48.4376 20.9185 47.9126 21.4435 47.2657 21.4435H45.9001Z" fill="#000957"/>
</svg>
