<svg width="69" height="60" viewBox="0 0 69 60" fill="none" xmlns="http://www.w3.org/2000/svg">
<path d="M69 0V36.2437L46 60H0V0H69Z" fill="#FF6500"/>
<path d="M26.375 17.0312H38.0938C38.7406 17.0312 39.2656 16.5062 39.2656 15.8594V11.1719C39.2656 10.525 38.7406 10 38.0938 10H26.375C25.7281 10 25.2031 10.525 25.2031 11.1719V15.8594C25.2031 16.5062 25.7281 17.0312 26.375 17.0312Z" fill="#000957"/>
<path d="M28.7188 26.3492V31.875H31.0625V30.7031C31.0625 30.0563 31.5875 29.5312 32.2344 29.5312C32.8812 29.5312 33.4062 30.0563 33.4062 30.7031V31.875H35.75V26.3492L32.2344 24.5914L28.7188 26.3492Z" fill="#000957"/>
<path d="M43.775 44.1406H39.9078C39.2609 44.1406 38.7359 43.6156 38.7359 42.9688V39.1016C38.7359 38.7906 38.8594 38.493 39.0789 38.2727L47.4688 29.8828V14.6875C47.4688 14.0406 46.9437 13.5156 46.2969 13.5156H41.6094V15.8594C41.6094 17.7977 40.032 19.375 38.0938 19.375H26.375C24.4367 19.375 22.8594 17.7977 22.8594 15.8594V13.5156H18.1719C17.525 13.5156 17 14.0406 17 14.6875V48.8281C17 49.475 17.525 50 18.1719 50H46.2969C46.9437 50 47.4688 49.475 47.4688 48.8281V40.932L44.6031 43.7977C44.3836 44.0172 44.0859 44.1406 43.775 44.1406ZM35.3594 44.1406H29.1094C28.4625 44.1406 27.9375 43.6156 27.9375 42.9688C27.9375 42.3219 28.4625 41.7969 29.1094 41.7969H35.3594C36.0062 41.7969 36.5312 42.3219 36.5312 42.9688C36.5312 43.6156 36.0062 44.1406 35.3594 44.1406ZM35.3594 39.4531H29.1094C28.4625 39.4531 27.9375 38.9281 27.9375 38.2812C27.9375 37.6344 28.4625 37.1094 29.1094 37.1094H35.3594C36.0062 37.1094 36.5312 37.6344 36.5312 38.2812C36.5312 38.9281 36.0062 39.4531 35.3594 39.4531ZM38.0938 27.5109V33.0469C38.0938 33.6937 37.5687 34.2188 36.9219 34.2188H27.5469C26.9 34.2188 26.375 33.6937 26.375 33.0469V27.5102C25.825 27.7055 25.2039 27.4656 24.9359 26.9305C24.6461 26.3516 24.8813 25.6477 25.4602 25.3586L31.7102 22.2336C32.0398 22.0687 32.4281 22.0687 32.7586 22.2336L39.0086 25.3586C39.5875 25.6484 39.8219 26.3516 39.5328 26.9305C39.2672 27.4609 38.6492 27.7078 38.0938 27.5109Z" fill="#000957"/>
<path d="M41.0797 41.7969H43.2898L51.1859 33.9008L48.9766 31.6914L41.0805 39.5875L41.0797 41.7969Z" fill="#000957"/>
</svg>
