<svg width="69" height="61" viewBox="0 0 69 61" fill="none" xmlns="http://www.w3.org/2000/svg">
<path d="M69 0.399902V36.6436L46 60.3999H0V0.399902H69Z" fill="#FF6500"/>
<path d="M53.2338 33.4436C52.2546 33.0267 51.1696 33.2258 50.4027 33.9639L46.2441 37.9632C46.0162 40.3252 44.0205 42.1778 41.6001 42.1778H34.6003C33.9563 42.1778 33.4336 41.6552 33.4336 41.0112C33.4336 40.3672 33.9563 39.8446 34.6003 39.8446H41.5503C42.8196 39.8446 43.8945 38.8514 43.9318 37.5821C43.9707 36.2638 42.9098 35.178 41.5993 35.178H35.2637L32.4435 33.7679C31.2357 33.1636 29.8832 32.8447 28.5322 32.8447C26.9471 32.8447 25.3916 33.2756 24.0321 34.0915L22.5435 34.9844V46.118L29.9858 48.3509C30.0947 48.3836 30.2075 48.3999 30.321 48.3999H42.0745C44.3565 48.3999 46.4743 47.3709 47.8844 45.5759L54.2628 37.4576C54.6221 36.9995 54.8204 36.4271 54.8204 35.8453C54.8204 34.7814 54.2122 33.8613 53.233 33.4444L53.2338 33.4436Z" fill="#000957"/>
<path d="M20.211 37.5105V35.5661C20.211 34.0627 18.9922 32.844 17.4888 32.844H16.1666C15.5227 32.844 15 33.3666 15 34.0106V37.5105H20.211Z" fill="#000957"/>
<path d="M15 39.8438V47.2325C15 47.8765 15.5227 48.3991 16.1666 48.3991H17.4888C18.9922 48.3991 20.211 47.1804 20.211 45.677V39.8438H15Z" fill="#000957"/>
<path d="M48.9102 18.191H46.9581C46.4906 18.191 46.0691 18.4695 45.8855 18.8996L45.4103 20.0117H42.2993L41.8241 18.8996C41.6405 18.4702 41.2182 18.191 40.7516 18.191H38.7994V20.0117C38.7994 20.6557 38.2767 21.1784 37.6327 21.1784C36.9888 21.1784 36.4661 20.6557 36.4661 20.0117V18.191H33.744V23.6353H47.9388C48.3051 23.6353 48.6505 23.4627 48.8713 23.1702L49.8428 21.8791C49.9944 21.6769 50.0769 21.4312 50.0769 21.1776V19.3577C50.0769 18.7129 49.5542 18.191 48.9102 18.191Z" fill="#000957"/>
<path d="M29.3489 14.8202L24.0928 13.5058C23.0397 13.2429 21.9454 13.4747 21.0898 14.1428C20.2343 14.8109 19.7435 15.8157 19.7435 16.9015V19.7465H23.2435C23.8874 19.7465 24.4101 20.2692 24.4101 20.9132C24.4101 21.5572 23.8874 22.0798 23.2435 22.0798H19.7435V24.9248C19.7435 26.0098 20.2343 27.0155 21.0898 27.6835C21.7144 28.1712 22.4657 28.4263 23.2357 28.4263C23.5203 28.4263 23.8081 28.3913 24.092 28.3205L29.3481 27.0069C30.5622 26.7036 31.4099 25.617 31.4099 24.3656V17.4607C31.4099 16.2093 30.5622 15.1235 29.3481 14.8194L29.3489 14.8202Z" fill="#000957"/>
</svg>
