<svg width="69" height="60" viewBox="0 0 69 60" fill="none" xmlns="http://www.w3.org/2000/svg">
<path d="M69 0V36.2437L46 60H0V0H69Z" fill="#FF6500"/>
<path d="M50.4577 21.3268L35.1921 10.2332C34.7647 9.92227 34.1774 9.92227 33.7491 10.2332L18.4835 21.3268C18.0681 21.6292 17.8978 22.1565 18.0617 22.6354C18.2256 23.1143 18.6859 23.4378 19.205 23.4378H23.624V25.6323C25.0638 26.444 26.0343 27.958 26.0343 29.6893V32.8127H28.6809C28.0237 31.7924 27.6413 30.5877 27.6413 29.2971C27.6413 25.6354 30.7048 22.6565 34.4706 22.6565C38.2364 22.6565 41.3 25.6354 41.3 29.2971C41.3 30.5877 40.9183 31.7924 40.2603 32.8127H42.9069V29.6893C42.9069 27.958 43.8775 26.444 45.3172 25.6323V23.4378H49.7362C50.2553 23.4378 50.7165 23.1143 50.8796 22.6354C51.0427 22.1565 50.8739 21.6292 50.4577 21.3268Z" fill="#000957"/>
<path d="M34.4706 33.5939C32.0337 33.5939 30.0516 31.6666 30.0516 29.2971C30.0516 26.9276 32.0337 25.0002 34.4706 25.0002C36.9075 25.0002 38.8896 26.9276 38.8896 29.2971C38.8896 31.6666 36.9075 33.5939 34.4706 33.5939Z" fill="#000957"/>
<path d="M24.0257 42.1876C23.6521 42.1876 23.2849 42.161 22.9258 42.1102C22.3176 43.743 21.3285 45.2375 20.0197 46.4524L18.3734 47.9805C18.0167 48.311 17.9034 48.8195 18.0866 49.2641C18.2698 49.7086 18.7125 50 19.205 50H25.2309V42.1876H24.0257Z" fill="#000957"/>
<path d="M43.7103 42.1876V50H49.7362C50.2288 50 50.6715 49.7086 50.8547 49.2641C51.0378 48.8195 50.9246 48.311 50.5678 47.9805L48.9215 46.4524C47.6127 45.2383 46.6237 43.743 46.0154 42.1102C45.6563 42.161 45.2891 42.1876 44.9155 42.1876H43.7103Z" fill="#000957"/>
<path d="M45.3172 29.6893V33.9845C45.3172 34.6314 44.7773 35.1564 44.1121 35.1564H37.6804C36.7227 35.654 35.6308 35.9376 34.4706 35.9376C33.3104 35.9376 32.2185 35.654 31.2608 35.1564H24.8292C24.1639 35.1564 23.624 34.6314 23.624 33.9845V29.6893C23.624 28.3947 22.5449 27.3455 21.2136 27.3455C19.8823 27.3455 18.8033 28.3947 18.8033 29.6893V34.7658C18.8033 37.5704 21.1413 39.8439 24.0257 39.8439H27.6413V50H41.3V39.8439H44.9155C47.7999 39.8439 50.138 37.5704 50.138 34.7658V29.6893C50.138 28.3947 49.0589 27.3455 47.7276 27.3455C46.3963 27.3455 45.3172 28.3947 45.3172 29.6893Z" fill="#000957"/>
</svg>
