<svg width="19" height="25" viewBox="0 0 19 25" fill="none" xmlns="http://www.w3.org/2000/svg">
<path d="M9.14064 0.300049C4.10063 0.300049 0 4.40068 0 9.44069C0 11.4352 0.630001 13.3304 1.82344 14.9204L8.5772 24.0165C8.59408 24.0385 8.61986 24.047 8.63861 24.0667C8.97611 24.4281 9.46314 24.3371 9.70361 24.0165C11.6485 21.4215 15.2133 16.5751 16.5839 14.747C16.5839 14.747 16.5844 14.7455 16.5849 14.7446L16.5933 14.7334C17.6977 13.1818 18.2813 11.3518 18.2813 9.44069C18.2813 4.40068 14.1807 0.300049 9.14064 0.300049ZM9.14064 14.372C6.42704 14.372 4.20938 12.1543 4.20938 9.44069C4.20938 6.72709 6.42704 4.50943 9.14064 4.50943C11.8542 4.50943 14.0719 6.72709 14.0719 9.44069C14.0719 12.1543 11.8542 14.372 9.14064 14.372Z" fill="#FF6500"/>
</svg>
