<svg width="19" height="25" viewBox="0 0 19 25" fill="none" xmlns="http://www.w3.org/2000/svg">
<path d="M9.14064 0.399902C4.10063 0.399902 0 4.50054 0 9.54055C0 11.5351 0.630001 13.4302 1.82344 15.0202L8.5772 24.1164C8.59408 24.1384 8.61986 24.1468 8.63861 24.1665C8.97611 24.5279 9.46314 24.437 9.70361 24.1164C11.6485 21.5214 15.2133 16.6749 16.5839 14.8468C16.5839 14.8468 16.5844 14.8454 16.5849 14.8445L16.5933 14.8332C17.6977 13.2816 18.2813 11.4516 18.2813 9.54055C18.2813 4.50054 14.1807 0.399902 9.14064 0.399902ZM9.14064 14.4718C6.42704 14.4718 4.20938 12.2541 4.20938 9.54055C4.20938 6.82695 6.42704 4.60929 9.14064 4.60929C11.8542 4.60929 14.0719 6.82695 14.0719 9.54055C14.0719 12.2541 11.8542 14.4718 9.14064 14.4718Z" fill="#FF6500"/>
</svg>
