<svg width="19" height="25" viewBox="0 0 19 25" fill="none" xmlns="http://www.w3.org/2000/svg">
<path d="M9.14064 0.0734863C4.10063 0.0734863 0 4.17412 0 9.21413C0 11.2087 0.630001 13.1038 1.82344 14.6938L8.5772 23.7899C8.59408 23.812 8.61986 23.8204 8.63861 23.8401C8.97611 24.2015 9.46314 24.1106 9.70361 23.7899C11.6485 21.1949 15.2133 16.3485 16.5839 14.5204C16.5839 14.5204 16.5844 14.519 16.5849 14.518L16.5933 14.5068C17.6977 12.9552 18.2813 11.1252 18.2813 9.21413C18.2813 4.17412 14.1807 0.0734863 9.14064 0.0734863ZM9.14064 14.1454C6.42704 14.1454 4.20938 11.9277 4.20938 9.21413C4.20938 6.50053 6.42704 4.28287 9.14064 4.28287C11.8542 4.28287 14.0719 6.50053 14.0719 9.21413C14.0719 11.9277 11.8542 14.1454 9.14064 14.1454Z" fill="#FF6500"/>
</svg>
