<svg width="69" height="60" viewBox="0 0 69 60" fill="none" xmlns="http://www.w3.org/2000/svg">
<path d="M69 0.000244141V36.2439L46 60.0002H0V0.000244141H69Z" fill="#FF6500"/>
<path d="M19.2534 30.8315L16.7675 33.3174C16.0808 34.0041 16.0808 35.1166 16.7675 35.8033C17.4542 36.49 18.5675 36.49 19.2534 35.8033L21.7393 33.3174C22.426 32.6307 22.426 31.5174 21.7393 30.8315C21.0526 30.1448 19.9401 30.1448 19.2534 30.8315Z" fill="#000957"/>
<path d="M27.54 39.1181L25.0541 41.604C24.3674 42.2907 24.3674 43.4031 25.0541 44.0899C25.7408 44.7766 26.8532 44.7766 27.54 44.0899L30.0258 41.604C30.7125 40.9173 30.7125 39.804 30.0258 39.1181C29.3391 38.4322 28.2267 38.4314 27.54 39.1181Z" fill="#000957"/>
<path d="M33.3398 46.5757L34.1687 45.7469C34.8554 45.0601 34.8554 43.9469 34.1687 43.261C33.482 42.5743 32.3695 42.5743 31.6828 43.261L30.854 44.0899C30.1672 44.7766 30.1672 45.8898 30.854 46.5757C31.5407 47.2625 32.6539 47.2625 33.3398 46.5757Z" fill="#000957"/>
<path d="M25.0541 33.3174L20.9112 37.4603C20.2245 38.147 20.2245 39.2603 20.9112 39.9462C21.5979 40.6329 22.7104 40.6329 23.3971 39.9462L27.5407 35.8033C28.2274 35.1166 28.2274 34.0033 27.5407 33.3174C26.854 32.6315 25.7415 32.6307 25.0548 33.3174H25.0541Z" fill="#000957"/>
<path d="M27.954 15.5021L24.9447 12.4608C24.4869 12.003 23.7447 12.003 23.2877 12.4608L13.3434 22.4043C12.8855 22.8621 12.8855 23.6043 13.3434 24.0613L15.3746 26.1246C16.0175 26.7675 16.5019 27.5519 16.7902 28.4152L17.1816 29.5886L17.5956 29.1745C19.1948 27.5761 21.7971 27.5761 23.3963 29.1745C23.9025 29.6815 24.2306 30.2932 24.4158 30.9378C25.9603 30.1386 27.9032 30.3675 29.1962 31.6604C30.4891 32.9534 30.718 34.8971 29.9188 36.4416C30.5633 36.6275 31.175 36.9541 31.6821 37.4611C32.4938 38.2728 32.8891 39.3431 32.8766 40.4095C33.943 40.397 35.0132 40.7923 35.8249 41.604C36.2328 42.0118 37.4819 43.261 37.4819 43.261C38.1687 43.9477 39.2811 43.9477 39.9678 43.261C40.6545 42.5743 40.6545 41.4618 39.9678 40.7751L37.0679 37.8751C36.6101 37.4173 36.6101 36.6752 37.0679 36.2181C37.5257 35.7603 38.2679 35.7603 38.7249 36.2181L41.6248 39.1181C42.3115 39.8048 43.4248 39.8048 44.1107 39.1181C44.7966 38.4314 44.7974 37.3181 44.1107 36.6322L41.2108 33.7322C40.753 33.2744 40.753 32.533 41.2108 32.0752C41.6686 31.6174 42.4108 31.6174 42.8678 32.0752L45.7677 34.9752C46.4544 35.6619 47.5669 35.6619 48.2536 34.9752C48.9403 34.2885 48.9403 33.176 48.2536 32.4893L41.1264 25.3621C38.8522 26.866 35.7531 26.6175 33.7523 24.6168C33.2953 24.1598 32.5524 24.1598 32.0953 24.6168C29.811 26.9011 26.0939 26.9011 23.8088 24.6168C22.4377 23.2465 22.4377 21.0161 23.8088 19.645L27.9517 15.5013L27.954 15.5021Z" fill="#000957"/>
<path d="M42.7131 12.3436C42.2553 11.8858 41.5131 11.8858 41.0561 12.3436L38.5772 14.8225C38.1421 15.2576 37.5523 15.5021 36.9366 15.5021H32.725C31.793 15.5021 30.8985 15.8724 30.2391 16.5318L25.4681 21.3028C25.0041 21.7669 25.0041 22.4957 25.4681 22.9598C26.8439 24.3356 29.0641 24.3356 30.4399 22.9598C31.6797 21.72 33.6219 21.6012 34.9961 22.6036C36.8445 23.952 39.3085 24.034 40.9264 22.4168L41.2123 22.1309L49.2747 30.1932C49.3864 29.78 49.3887 29.3433 49.2794 28.9378C49.0895 28.2347 49.3645 27.2363 49.8794 26.7214L52.6566 23.9442C53.1145 23.4863 53.1145 22.7442 52.6566 22.2872L42.7131 12.3436Z" fill="#000957"/>
</svg>
