<svg width="69" height="60" viewBox="0 0 69 60" fill="none" xmlns="http://www.w3.org/2000/svg">
<path d="M69 0.000244141V36.2439L46 60.0002H0V0.000244141H69Z" fill="#FF6500"/>
<path d="M36.0342 10.0002H26.5852V12.8017H36.0342V10.0002Z" fill="#000957"/>
<path d="M26.5508 15.1454C26.2712 16.6759 24.3142 17.2602 24.3142 19.4422V30.8864C24.3142 31.7356 25.0024 32.4239 25.8516 32.4239C26.7008 32.4239 27.3891 31.7356 27.3891 30.8864V31.3989C27.3891 32.2481 28.0774 32.9364 28.9266 32.9364C29.7758 32.9364 30.464 32.2481 30.464 31.3989V31.9114C30.464 32.7606 31.1523 33.4489 32.0015 33.4489C32.8507 33.4489 33.5389 32.7606 33.5389 31.9114V32.4239C33.5389 33.2731 34.2272 33.9613 35.0764 33.9613C35.9256 33.9613 36.6139 33.2731 36.6139 32.4239V25.5952C36.6139 26.4444 37.3021 27.1326 38.1513 27.1326C39.0005 27.1326 39.6888 26.4444 39.6888 25.5952V20.9476C39.6888 18.0055 36.4162 17.2602 36.067 15.1454H26.5508Z" fill="#000957"/>
<path d="M13.981 41.337L12 43.3179L18.6814 49.9994L20.6624 48.0184L13.981 41.337Z" fill="#000957"/>
<path d="M27.286 38.4933C26.2954 37.5027 25.922 36.084 26.2837 34.7426C26.1415 34.7582 25.997 34.7676 25.8509 34.7676C23.7111 34.7676 21.9697 33.0262 21.9697 30.8864V29.3208C21.4471 29.1662 20.858 29.2951 20.4448 29.7076L17.1581 32.9942C15.0777 35.0746 16.8652 37.9159 15.616 39.6581L22.3431 46.3853C23.6228 45.5009 25.4204 46.4712 26.9633 44.9283L30.3414 41.5502L27.2852 38.4933H27.286Z" fill="#000957"/>
<path d="M46.841 32.9942L43.5543 29.7076C42.9543 29.1076 41.9809 29.1076 41.3802 29.7076C40.7794 30.3075 40.7802 31.281 41.3802 31.8817L38.9552 29.4568V32.4239C38.9552 34.5637 37.2139 36.305 35.0741 36.305C34.2921 36.305 33.5639 36.073 32.9546 35.6738C32.6491 35.7511 32.3288 35.7926 31.9999 35.7926C31.2187 35.7926 30.4898 35.5605 29.8804 35.1613C29.575 35.2387 29.2547 35.2801 28.9258 35.2801C28.807 35.2801 28.6899 35.2738 28.5734 35.2637C28.3961 35.798 28.518 36.4105 28.9438 36.8363L37.0357 44.9283C38.5787 46.4712 40.3763 45.5009 41.6559 46.3853L48.3831 39.6581C47.1347 37.9159 48.9214 35.0746 46.841 32.9942Z" fill="#000957"/>
<path d="M50.019 41.3366L43.3376 48.018L45.3186 49.999L52 43.3176L50.019 41.3366Z" fill="#000957"/>
</svg>
