<svg width="69" height="60" viewBox="0 0 69 60" fill="none" xmlns="http://www.w3.org/2000/svg">
<path d="M69 0.000244141V36.2439L46 60.0002H0V0.000244141H69Z" fill="#FF6500"/>
<path d="M31.2345 21.7974C26.7116 21.7974 23.031 25.478 23.031 30.0009C23.031 34.5238 26.7116 38.2045 31.2345 38.2045C35.7574 38.2045 39.4381 34.5238 39.4381 30.0009C39.4381 25.478 35.7574 21.7974 31.2345 21.7974ZM36.7508 28.4855L30.8917 34.3446C30.6631 34.5732 30.3625 34.6882 30.0635 34.6882C29.7645 34.6882 29.4639 34.5739 29.2353 34.3446L25.7198 30.8291C25.2619 30.3712 25.2619 29.6299 25.7198 29.172C26.1777 28.714 26.919 28.714 27.377 29.172L30.0643 31.8593L35.0952 26.8283C35.5531 26.3704 36.2944 26.3704 36.7523 26.8283C37.2103 27.2862 37.2103 28.0275 36.7523 28.4855H36.7508Z" fill="#000957"/>
<path d="M45.2972 14.7656H42.552C38.5895 14.7656 34.8651 13.1445 32.0635 10.3437C31.6056 9.88576 30.8643 9.88576 30.4063 10.3437C27.6048 13.1453 23.8795 14.7656 19.9178 14.7656H17.1718C16.5237 14.7656 16 15.2893 16 15.9375V30.0001C16 40.5309 23.6627 45.4296 28.7335 48.6186C29.1969 48.9098 30.7406 50.0002 31.2345 50.0002C31.7285 50.0002 33.2298 48.9372 33.6917 48.6476C38.7798 45.4562 46.469 40.5528 46.469 30.0001V15.9375C46.469 15.2893 45.9446 14.7656 45.2972 14.7656ZM31.2345 40.5474C25.4184 40.5474 20.6873 35.8162 20.6873 30.0001C20.6873 24.1841 25.4184 19.4529 31.2345 19.4529C37.0506 19.4529 41.7817 24.1841 41.7817 30.0001C41.7817 35.8162 37.0506 40.5474 31.2345 40.5474Z" fill="#000957"/>
</svg>
