<svg width="69" height="60" viewBox="0 0 69 60" fill="none" xmlns="http://www.w3.org/2000/svg">
<path d="M69 0.000244141V36.2439L46 60.0002H0V0.000244141H69Z" fill="#FF6500"/>
<path d="M41.2163 11.1715V13.8457C42.5108 13.8457 43.56 14.8949 43.56 16.1895C43.56 17.484 42.5108 18.5332 41.2163 18.5332V21.2676C41.2163 21.9144 41.7413 22.4394 42.3882 22.4394H45.1225C45.1225 23.734 46.1717 24.7832 47.4663 24.7832C48.7608 24.7832 49.81 23.734 49.81 22.4394H52.4842C53.1826 22.4394 53.7209 21.8324 53.649 21.1371C53.0428 15.2739 48.3827 10.6137 42.5186 10.0067C41.8233 9.93481 41.2163 10.4731 41.2163 11.1715Z" fill="#000957"/>
<path d="M22.7859 22.7691C24.4367 22.7691 25.8406 23.8449 26.3328 25.3324H29.6218V22.2316C31.0374 22.2316 32.1851 21.084 32.1851 19.6684C32.1851 18.2527 31.0374 17.1051 29.6218 17.1051V12.8325C22.4656 12.8325 16.5953 18.3301 16 25.3324H19.2383C19.7312 23.8449 21.1351 22.7691 22.7851 22.7691H22.7859Z" fill="#000957"/>
<path d="M36.4577 29.0675C35.0421 29.0675 33.8944 27.9199 33.8944 26.5043H30.7937V29.7933C32.2812 30.2863 33.3569 31.6902 33.3569 33.3402C33.3569 34.9902 32.2812 36.3948 30.7937 36.887V43.594H35.603C35.603 40.9706 36.7202 38.4683 38.6843 36.7292C41.51 34.2277 43.2928 30.5761 43.2928 26.5043H39.0202C39.0202 27.9199 37.8726 29.0675 36.4569 29.0675H36.4577Z" fill="#000957"/>
<path d="M28.4499 35.9034C28.4499 35.2566 28.9749 34.7316 29.6218 34.7316C30.389 34.7316 31.0132 34.1074 31.0132 33.3402C31.0132 32.573 30.389 31.9488 29.6218 31.9488C28.9749 31.9488 28.4499 31.4238 28.4499 30.7769V27.6761H25.3492C24.7023 27.6761 24.1773 27.1511 24.1773 26.5043C24.1773 25.7371 23.5531 25.1129 22.7859 25.1129C22.0187 25.1129 21.3945 25.7371 21.3945 26.5043C21.3945 27.1511 20.8695 27.6761 20.2226 27.6761H16C16.3062 31.2738 18.007 34.4699 20.5586 36.7292C22.5234 38.4683 23.6398 40.9706 23.6398 43.594H28.4492V35.9034H28.4499Z" fill="#000957"/>
<path d="M23.6843 47.2659C23.6843 48.776 24.9086 50.0002 26.4187 50.0002H32.7843C34.2624 50.0002 35.4733 48.8253 35.5171 47.3471L35.5593 45.9378H23.6843V47.2659Z" fill="#000957"/>
</svg>
