<svg width="69" height="60" viewBox="0 0 69 60" fill="none" xmlns="http://www.w3.org/2000/svg">
<path d="M69 0.000244141V36.2439L46 60.0002H0V0.000244141H69Z" fill="#FF6500"/>
<path d="M51.8281 32.5161H50.2781L46.2945 22.7512C47.4398 22.1708 48.2352 20.995 48.2352 19.6254C48.2352 18.9778 47.7109 18.4536 47.0633 18.4536C46.4156 18.4536 45.8914 18.9778 45.8914 19.6254C45.8914 20.2731 45.3664 20.7973 44.7195 20.7973C44.1094 20.7973 43.8094 20.5731 43.1883 20.0661C42.3555 19.3864 41.2133 18.4536 38.8602 18.4536C37.2633 18.4536 36.1953 18.8895 35.4711 19.4723C35.1086 19.1129 34.6633 18.8442 34.1727 18.6692V18.2372C35.5336 17.752 36.5164 16.4629 36.5164 14.9372C36.5164 13.4114 34.732 10.5864 33.9656 9.47544C33.5266 8.84185 32.4758 8.84185 32.0359 9.47544C31.2688 10.5864 29.4852 13.4395 29.4852 14.9372C29.4852 16.4348 30.468 17.7512 31.8289 18.2372V18.6692C31.3391 18.8442 30.8938 19.1129 30.5305 19.4723C29.8062 18.8895 28.7375 18.4536 27.1414 18.4536C24.7883 18.4536 23.6461 19.3864 22.8133 20.0661C22.1922 20.5731 21.8922 20.7973 21.282 20.7973C20.6352 20.7973 20.1102 20.2723 20.1102 19.6254C20.1102 18.9786 19.5859 18.4536 18.9383 18.4536C18.2906 18.4536 17.7664 18.9778 17.7664 19.6254C17.7664 20.995 18.5617 22.1715 19.707 22.7512L15.7234 32.5161H14.1719C13.5242 32.5161 13 33.0403 13 33.6879C13 36.9184 15.6289 39.5473 18.8594 39.5473H23.625C26.8555 39.5473 29.4844 36.9184 29.4844 33.6879C29.4844 33.0403 28.9602 32.5161 28.3125 32.5161H26.7625L22.8758 22.7989C23.4508 22.545 23.907 22.1981 24.2945 21.8817C25.0078 21.2989 25.6234 20.7965 27.1406 20.7965C29.2805 20.7965 29.4695 21.7856 29.4844 21.9973C29.4844 22.0059 29.4891 22.0122 29.4898 22.0208C29.5125 23.5239 30.4828 24.7887 31.8281 25.2684V42.1848C30.4672 42.67 29.4844 43.959 29.4844 45.4848C29.4844 46.1317 28.9594 46.6567 28.3125 46.6567H25.9688C25.3211 46.6567 24.7969 47.1809 24.7969 47.8286C24.7969 48.4762 25.3211 49.0004 25.9688 49.0004H40.0312C40.6789 49.0004 41.2031 48.4762 41.2031 47.8286C41.2031 47.1809 40.6789 46.6567 40.0312 46.6567H37.6875C37.0406 46.6567 36.5156 46.1317 36.5156 45.4848C36.5156 43.959 35.5328 42.6707 34.1719 42.1848V25.2692C35.5188 24.7887 36.4906 23.5208 36.5109 22.0161C36.5109 22.0114 36.5141 22.0075 36.5148 22.0028C36.5281 21.8028 36.7023 20.7973 38.8594 20.7973C40.3766 20.7973 40.9922 21.2997 41.7055 21.8825C42.093 22.1989 42.5492 22.5458 43.1242 22.7997L39.2375 32.5168H37.6875C37.0398 32.5168 36.5156 33.0411 36.5156 33.6887C36.5156 36.9192 39.1445 39.5481 42.375 39.5481H47.1406C50.3711 39.5481 53 36.9192 53 33.6887C53 33.0411 52.4758 32.5168 51.8281 32.5168V32.5161ZM18.2469 32.5161L21.2812 25.1247L24.2375 32.5161H18.2469ZM41.7625 32.5161L44.7188 25.1247L47.7531 32.5161H41.7625Z" fill="#000957"/>
</svg>
