<svg width="69" height="60" viewBox="0 0 69 60" fill="none" xmlns="http://www.w3.org/2000/svg">
<path d="M69 0.000244141V36.2439L46 60.0002H0V0.000244141H69Z" fill="#FF6500"/>
<path d="M36.3172 18.4198C35.1945 19.494 33.6734 20.1565 32 20.1565C30.3266 20.1565 28.8062 19.494 27.6828 18.4198C25.8039 19.7674 24.5781 21.9698 24.5781 24.4534V25.2346C24.5781 25.8815 25.1031 26.4065 25.75 26.4065H38.25C38.8969 26.4065 39.4219 25.8815 39.4219 25.2346V24.4534C39.4219 21.9698 38.1953 19.7674 36.3172 18.4198Z" fill="#000957"/>
<path d="M32 17.8127C29.8461 17.8127 28.0938 16.0604 28.0938 13.9065C28.0938 11.7526 29.8461 10.0002 32 10.0002C34.1539 10.0002 35.9062 11.7526 35.9062 13.9065C35.9062 16.0604 34.1539 17.8127 32 17.8127Z" fill="#000957"/>
<path d="M35.2031 45.3127C34.5562 45.3127 34.0312 45.8377 34.0312 46.4846V48.8284C34.0312 49.4752 34.5562 50.0002 35.2031 50.0002H47.7031C48.35 50.0002 48.875 49.4752 48.875 48.8284V46.4846C48.875 45.8377 48.35 45.3127 47.7031 45.3127H35.2031Z" fill="#000957"/>
<path d="M50.8281 19.5315H50.4375C48.0641 19.5315 46.1406 21.4549 46.1406 23.8284V26.1206C46.5406 26.3479 46.9172 26.6315 47.2578 26.9721C49.3141 29.0284 49.3141 32.3737 47.2578 34.4299L43.8133 37.8745C43.3555 38.3323 42.6133 38.3323 42.1562 37.8745C41.6992 37.4167 41.6984 36.6745 42.1562 36.2174L45.6008 32.7729C46.743 31.6307 46.743 29.7721 45.6008 28.6299C44.4586 27.4877 42.6 27.4877 41.4578 28.6299L37.3109 32.7776C36.2039 33.8846 35.5945 35.3557 35.5945 36.9206V42.9698H47.3133V42.1299L51.8266 34.8127C51.9406 34.6276 52.0008 34.4151 52.0008 34.1979V20.7042C52.0008 20.0573 51.4758 19.5323 50.8289 19.5323L50.8281 19.5315Z" fill="#000957"/>
<path d="M28.7969 45.3127C29.4438 45.3127 29.9688 45.8377 29.9688 46.4846V48.8284C29.9688 49.4752 29.4438 50.0002 28.7969 50.0002H16.2969C15.65 50.0002 15.125 49.4752 15.125 48.8284V46.4846C15.125 45.8377 15.65 45.3127 16.2969 45.3127H28.7969Z" fill="#000957"/>
<path d="M28.4062 36.9198C28.4062 35.3549 27.7969 33.8831 26.6898 32.7768L22.5422 28.6299C21.4 27.4877 19.5414 27.4877 18.3992 28.6299C17.257 29.7721 17.257 31.6307 18.3992 32.7729L21.8438 36.2174C22.3016 36.6752 22.3016 37.4174 21.8438 37.8745C21.3859 38.3315 20.6445 38.3323 20.1867 37.8745L16.7422 34.4299C14.6859 32.3737 14.6859 29.0284 16.7422 26.9721C17.0828 26.6315 17.4594 26.3487 17.8594 26.1206V23.8284C17.8594 21.4549 15.9359 19.5315 13.5625 19.5315H13.1719C12.525 19.5315 12 20.0565 12 20.7034V34.1971C12 34.4143 12.0602 34.6276 12.1742 34.812L16.6875 42.1292V42.969H28.4062V36.9198Z" fill="#000957"/>
</svg>
