<svg width="128" height="34" viewBox="0 0 128 34" fill="none" xmlns="http://www.w3.org/2000/svg">
<path d="M16.3646 14.3751L24.7995 5.77186C24.7995 5.77186 25.1212 5.49288 25.1438 5.04298C25.1991 3.89437 25.1614 0.438477 25.1614 0.438477L16.3646 9.26797L7.57029 0.438477C7.57029 0.438477 7.53259 3.89437 7.58537 5.0455C7.60799 5.49539 7.9297 5.77437 7.9297 5.77437L16.3646 14.3777V14.3751Z" fill="#FBCB22"/>
<path d="M18.893 16.8885L27.4988 25.3209C27.4988 25.3209 27.7778 25.6426 28.2277 25.6652C29.3789 25.718 32.8373 25.6803 32.8373 25.6803L24.0027 16.886L32.8373 8.09171C32.8373 8.09171 29.3789 8.05401 28.2277 8.10679C27.7778 8.12941 27.4988 8.45112 27.4988 8.45112L18.893 16.8835V16.8885Z" fill="white"/>
<path d="M13.9417 16.8885L5.3359 8.45615C5.3359 8.45615 5.05691 8.13443 4.60702 8.11181C3.45841 8.05652 0 8.09422 0 8.09422L8.83452 16.8885L0 25.6803C0 25.6803 3.45841 25.718 4.60953 25.6652C5.05943 25.6426 5.33841 25.3209 5.33841 25.3209L13.9442 16.8885H13.9417Z" fill="white"/>
<path d="M16.3646 19.5125L7.9297 28.1158C7.9297 28.1158 7.60799 28.3948 7.58537 28.8447C7.53259 29.9958 7.57029 33.4517 7.57029 33.4517L16.3671 24.6222L25.1639 33.4517C25.1639 33.4517 25.2016 29.9958 25.1488 28.8447C25.1262 28.3948 24.8045 28.1158 24.8045 28.1158L16.3696 19.5125H16.3646Z" fill="white"/>
<path d="M117.583 13.4653H121.449V14.8552H116.035V7.6393H121.343V9.03422H117.586V10.4794H120.519V11.8693H117.586V13.4703L117.583 13.4653ZM109.133 7.4885C109.51 7.4885 109.872 7.53876 110.214 7.6393C110.556 7.73983 110.832 7.85545 111.054 7.9962C111.275 8.13695 111.466 8.2777 111.637 8.41845C111.808 8.55919 111.928 8.67984 112.004 8.77534L112.119 8.92615L111.139 9.90636C111.119 9.88123 111.089 9.84604 111.054 9.79578C111.018 9.74551 110.938 9.66508 110.817 9.54444C110.697 9.42882 110.561 9.32829 110.42 9.23781C110.274 9.14732 110.083 9.0669 109.852 8.9915C109.616 8.91609 109.375 8.87588 109.133 8.87588C108.46 8.87588 107.897 9.10208 107.442 9.55449C106.987 10.0069 106.763 10.5699 106.763 11.246C106.763 11.9221 106.989 12.4826 107.442 12.9375C107.894 13.3899 108.457 13.6161 109.133 13.6161C109.395 13.6161 109.641 13.5809 109.882 13.5105C110.124 13.4402 110.32 13.3547 110.48 13.2542C110.636 13.1536 110.777 13.0531 110.898 12.9526C111.018 12.852 111.104 12.7666 111.159 12.6912L111.24 12.5856L112.169 13.5658C112.139 13.6061 112.099 13.6613 112.044 13.7267C111.988 13.792 111.868 13.9077 111.677 14.0735C111.486 14.2394 111.285 14.3852 111.069 14.5109C110.852 14.6365 110.571 14.7522 110.219 14.8527C109.867 14.9583 109.505 15.0085 109.133 15.0085C108.032 15.0085 107.1 14.6416 106.346 13.9077C105.592 13.1738 105.215 12.2815 105.215 11.246C105.215 10.2105 105.592 9.32326 106.346 8.58936C107.1 7.85545 108.032 7.4885 109.133 7.4885ZM99.6026 7.6393H101.148V14.8552H99.8087L96.2573 10.2708V14.8552H94.7065V7.6393H96.0512L99.6026 12.2287V7.6393ZM86.7768 13.4653H90.6424V14.8552H85.2286V7.6393H90.5368V9.03422H86.7793V10.4794H89.7124V11.8693H86.7793V13.4703L86.7768 13.4653ZM79.1965 14.8527V7.63679H80.7472V14.8527H79.1965ZM73.373 10.0069C73.373 9.7254 73.2825 9.49417 73.0965 9.30818C72.9105 9.12722 72.6743 9.03171 72.3928 9.03171H70.7968V10.9394H72.3928C72.6743 10.9394 72.9105 10.8539 73.0965 10.6729C73.2825 10.492 73.373 10.2708 73.373 10.0094V10.0069ZM69.2536 14.8527L69.2485 7.63679H72.443C73.1568 7.63679 73.7525 7.86802 74.22 8.32545C74.6875 8.78289 74.9187 9.34085 74.9187 10.0069C74.9187 10.2985 74.8735 10.5649 74.783 10.8162C74.6925 11.0675 74.587 11.2736 74.4663 11.4244C74.3457 11.5803 74.22 11.711 74.0943 11.8216C73.9636 11.9321 73.8581 12.0075 73.7676 12.0478L73.6369 12.1181L75.1826 14.8502H73.5313L72.1414 12.3242H70.8018V14.8502H69.2511L69.2536 14.8527ZM61.3214 13.4653H65.1869V14.8552H59.7731V7.6393H65.0814V9.03422H61.3239V10.4794H64.257V11.8693H61.3239V13.4703L61.3214 13.4653ZM53.1303 9.03674H51.6901V11.0952H53.1303C53.4369 11.0952 53.6933 10.9947 53.8994 10.7986C54.1054 10.5975 54.211 10.3563 54.211 10.0697C54.211 9.78321 54.1054 9.5369 53.8994 9.33583C53.6933 9.13476 53.4369 9.03925 53.1303 9.03925V9.03674ZM50.1393 7.6393L53.178 7.64433C53.9169 7.64433 54.5327 7.87556 55.0203 8.33802C55.5079 8.80048 55.7542 9.37856 55.7542 10.0647C55.7542 10.7509 55.5079 11.3264 55.0253 11.7914C54.5377 12.2539 53.9245 12.4851 53.178 12.4851H51.6876V14.8552H50.1368V7.6393H50.1393ZM42.9787 12.2262L41.2269 14.8527H39.4701L41.996 11.0902L39.6762 7.6393H41.433L42.9787 9.95915L44.5245 7.6393H46.2763L43.9564 11.0902L46.4824 14.8527H44.7306L42.9787 12.2262Z" fill="white"/>
<path d="M85.9499 19.5929H84.5098V21.6514H85.9499C86.2566 21.6514 86.5129 21.5508 86.719 21.3548C86.9251 21.1537 87.0307 20.9124 87.0307 20.6259C87.0307 20.3394 86.9251 20.0931 86.719 19.892C86.5129 19.6909 86.2566 19.5954 85.9499 19.5954V19.5929ZM82.9615 18.1955L86.0002 18.2005C86.7391 18.2005 87.3549 18.4317 87.8425 18.8942C88.3301 19.3567 88.5764 19.9347 88.5764 20.6209C88.5764 21.307 88.3301 21.8826 87.8475 22.3476C87.3599 22.81 86.7467 23.0413 86.0002 23.0413H84.5098V25.4114H82.959V18.1955H82.9615ZM75.4893 24.1723C75.9266 24.1723 76.3036 24.0114 76.6152 23.6847C76.9269 23.363 77.0827 22.9558 77.0827 22.4732V18.1955H78.6285V22.4732C78.6285 23.3529 78.3269 24.0893 77.7337 24.6825C77.1355 25.2757 76.384 25.5722 75.4842 25.5722C74.5844 25.5722 73.8329 25.2757 73.2398 24.6825C72.6416 24.0893 72.345 23.3529 72.345 22.4732V18.1955H73.8907V22.4732C73.8907 22.9558 74.0466 23.358 74.3582 23.6847C74.6699 24.0114 75.0469 24.1723 75.4893 24.1723ZM60.5925 21.8022C60.5925 20.7667 60.9695 19.8794 61.7235 19.1455C62.4775 18.4116 63.41 18.0447 64.5058 18.0447C65.6016 18.0447 66.5341 18.4116 67.2881 19.1455C68.0421 19.8794 68.4191 20.7667 68.4191 21.8022C68.4191 22.8377 68.0421 23.7299 67.2881 24.4638C66.5341 25.1977 65.6016 25.5647 64.5058 25.5647C63.41 25.5647 62.4775 25.1977 61.7235 24.4638C60.9695 23.7299 60.5925 22.8377 60.5925 21.8022ZM62.1935 21.8072C62.1935 22.4707 62.4147 23.0337 62.8671 23.4886C63.3145 23.9461 63.8624 24.1723 64.5083 24.1723C65.1543 24.1723 65.6997 23.9461 66.1495 23.4886C66.602 23.0362 66.8231 22.4732 66.8231 21.8072C66.8231 21.1412 66.602 20.5807 66.1495 20.1207C65.7022 19.6633 65.1543 19.4321 64.5083 19.4321C63.8624 19.4321 63.317 19.6633 62.8671 20.1207C62.4147 20.5782 62.1935 21.1412 62.1935 21.8072ZM55.2867 20.5631C55.2867 20.2816 55.1963 20.0504 55.0103 19.8644C54.8243 19.6834 54.588 19.5879 54.3065 19.5879H52.7105V21.4955H54.3065C54.588 21.4955 54.8243 21.4101 55.0103 21.2291C55.1963 21.0482 55.2867 20.827 55.2867 20.5656V20.5631ZM51.1648 25.4089L51.1598 18.193H54.3543C55.0681 18.193 55.6637 18.4242 56.1312 18.8816C56.5987 19.3391 56.8299 19.897 56.8299 20.5631C56.8299 20.8546 56.7847 21.121 56.6942 21.3724C56.6037 21.6237 56.4982 21.8298 56.3775 21.9806C56.2569 22.1365 56.1312 22.2671 56.0056 22.3777C55.8749 22.4883 55.7693 22.5637 55.6788 22.6039L55.5481 22.6743L57.0939 25.4064H55.4426L54.0527 22.8804H52.713V25.4064H51.1623L51.1648 25.4089ZM44.1123 21.4955H46.9448V24.1723C46.9147 24.2075 46.8745 24.2577 46.8141 24.3231C46.7538 24.3884 46.6282 24.499 46.4271 24.6599C46.226 24.8207 46.0149 24.9615 45.7937 25.0821C45.5725 25.2028 45.281 25.3134 44.9191 25.4139C44.5571 25.5144 44.1902 25.5647 43.8081 25.5647C42.7073 25.5647 41.7748 25.1977 41.0208 24.4638C40.2668 23.7299 39.8898 22.8377 39.8898 21.8022C39.8898 20.7667 40.2668 19.8794 41.0208 19.1455C41.7748 18.4116 42.7073 18.0447 43.8081 18.0447C44.1852 18.0447 44.5471 18.0949 44.8889 18.1955C45.2307 18.296 45.5072 18.4116 45.7284 18.5524C45.9495 18.6931 46.1406 18.8339 46.3115 18.9746C46.4824 19.1154 46.603 19.236 46.6784 19.3315L46.794 19.4823L45.8138 20.4625C45.7937 20.4374 45.7636 20.4022 45.7284 20.352C45.6932 20.3017 45.6128 20.2213 45.4921 20.1006C45.3715 19.985 45.2357 19.8845 45.095 19.794C44.9492 19.7035 44.7582 19.6231 44.527 19.5477C44.2907 19.4723 44.0494 19.4321 43.8081 19.4321C43.1346 19.4321 42.5716 19.6583 42.1166 20.1107C41.6617 20.5631 41.438 21.1261 41.438 21.8022C41.438 22.4783 41.6642 23.0388 42.1166 23.4937C42.5691 23.9461 43.132 24.1723 43.8081 24.1723C44.1299 24.1723 44.4214 24.127 44.6878 24.0315C44.9492 23.936 45.1352 23.8405 45.2458 23.74L45.4016 23.6093V22.6291H44.1148V21.4981L44.1123 21.4955Z" fill="white"/>
<path d="M125.211 28.8271L126.262 30.6794L127.313 28.8271H127.976L126.564 31.3153V32.6977H125.955V31.3153L124.545 28.8271H125.211ZM121.258 28.8271H121.866V32.6977H121.343L119.187 29.9053V32.6977H118.579V28.8271H119.101L121.258 31.6219V28.8271ZM113.987 29.5182L113.348 31.1218H114.62L113.987 29.5182ZM112.076 32.6977L113.68 28.8271H114.288L115.892 32.6977H115.258L114.844 31.6747H113.13L112.715 32.6977H112.076ZM108.653 29.3825H107.713V30.7624H108.653C108.842 30.7624 109.008 30.697 109.141 30.5663C109.277 30.4331 109.344 30.2697 109.344 30.0737C109.344 29.8777 109.277 29.7143 109.141 29.5811C109.005 29.4454 108.842 29.3825 108.653 29.3825ZM107.105 28.8271H108.653C109.02 28.8296 109.332 28.9477 109.578 29.1915C109.824 29.4353 109.953 29.7294 109.953 30.0737C109.953 30.418 109.827 30.7146 109.578 30.9534C109.329 31.1972 109.02 31.3153 108.653 31.3153H107.713V32.6977H107.105V28.8271ZM101.963 30.7096L103.456 28.8271H103.981V32.6977H103.373V29.8802L101.96 31.6496L100.55 29.8802V32.6977H99.9419V28.8271H100.465L101.958 30.7096H101.963ZM92.9497 30.7624C92.9497 30.2069 93.1432 29.7369 93.5378 29.3498C93.9299 28.9653 94.415 28.7718 94.9931 28.7718C95.5711 28.7718 96.0562 28.9653 96.4483 29.3498C96.8429 29.7369 97.0364 30.2069 97.0364 30.7624C97.0364 31.3178 96.8429 31.7903 96.4483 32.1749C96.0562 32.5619 95.5711 32.753 94.9931 32.753C94.415 32.753 93.9299 32.5619 93.5378 32.1749C93.1432 31.7903 92.9497 31.3178 92.9497 30.7624ZM93.5579 30.7624C93.5579 31.1645 93.6962 31.5038 93.9726 31.7828C94.2516 32.0643 94.5909 32.2025 94.9931 32.2025C95.3952 32.2025 95.7345 32.0643 96.0135 31.7828C96.2925 31.5038 96.4332 31.1645 96.4332 30.7624C96.4332 30.3602 96.2925 30.0234 96.0135 29.7444C95.7345 29.4655 95.3952 29.3247 94.9931 29.3247C94.5909 29.3247 94.2516 29.4655 93.9726 29.7444C93.6936 30.0234 93.5579 30.3627 93.5579 30.7624ZM88.8906 28.7718C89.0841 28.7718 89.2751 28.7994 89.4511 28.8497C89.632 28.8999 89.7803 28.9628 89.8984 29.0357C90.0166 29.1111 90.1196 29.184 90.2051 29.2543C90.293 29.3272 90.3584 29.3901 90.3986 29.4403L90.4589 29.5157L90.0719 29.9053C90.0618 29.8927 90.0467 29.8726 90.0266 29.845C90.004 29.8173 89.9588 29.7721 89.8834 29.7017C89.8105 29.6339 89.7326 29.576 89.6446 29.5258C89.5617 29.478 89.4511 29.4303 89.3153 29.3875C89.1796 29.3448 89.0338 29.3247 88.883 29.3247C88.4834 29.3247 88.1441 29.4629 87.8626 29.7394C87.5836 30.0184 87.4429 30.3577 87.4429 30.7598C87.4429 31.162 87.5836 31.4988 87.8626 31.7803C88.1416 32.0593 88.4809 32.2 88.883 32.2C89.0338 32.2 89.1796 32.1774 89.3178 32.1347C89.4561 32.0919 89.5692 32.0417 89.6597 31.9839C89.7502 31.9261 89.8306 31.8657 89.901 31.8054C89.9713 31.7451 90.0216 31.6973 90.0543 31.6571L90.097 31.5893L90.4866 31.9788C90.474 32.0015 90.4514 32.0266 90.4212 32.0618C90.3911 32.097 90.3257 32.1598 90.2252 32.2478C90.1221 32.3332 90.0141 32.4136 89.901 32.4815C89.7879 32.5494 89.637 32.6122 89.4536 32.665C89.2701 32.7178 89.0816 32.7454 88.8855 32.7454C88.305 32.7454 87.8199 32.5544 87.4278 32.1673C87.0332 31.7828 86.8397 31.3103 86.8397 30.7548C86.8397 30.1994 87.0332 29.7294 87.4278 29.3423C87.8199 28.9578 88.305 28.7642 88.8855 28.7642L88.8906 28.7718ZM81.0891 32.1447V32.6977H78.2967V28.8271H81.0338V29.38H78.9024V30.4029H80.5889V30.9559H78.9024V32.1447H81.0891ZM73.4333 32.6977L71.9102 28.8271H72.5486L73.7374 31.9235L74.9288 28.8271H75.5621L74.0415 32.6977H73.4333ZM68.5699 32.6977V28.8271H69.1782V32.6977H68.5699ZM62.955 28.8271H65.8856V29.38H64.7245V32.6977H64.1162V29.38H62.955V28.8271ZM59.1423 29.5182L58.5039 31.1218H59.7756L59.1423 29.5182ZM57.2321 32.6977L58.8356 28.8271H59.4439L61.0474 32.6977H60.414L59.9993 31.6747H58.2852L57.8705 32.6977H57.2321ZM54.8268 32.1447V32.6977H52.0344V28.8271H54.7715V29.38H52.6402V30.4029H54.3266V30.9559H52.6402V32.1447H54.8268ZM48.4101 30.0184C48.4101 29.8374 48.3473 29.6866 48.2267 29.566C48.106 29.4454 47.9552 29.3825 47.7768 29.3825H46.7538V30.6543H47.7768C47.9552 30.6543 48.106 30.594 48.2267 30.4733C48.3473 30.3527 48.4101 30.2019 48.4101 30.0209V30.0184ZM46.1456 32.6977V28.8271H47.7768C48.1337 28.8271 48.4302 28.9427 48.6665 29.1689C48.9002 29.3976 49.0209 29.6816 49.0209 30.0159C49.0209 30.1742 48.9932 30.3225 48.9405 30.4608C48.8877 30.599 48.8223 30.7071 48.7469 30.785C48.6715 30.8654 48.5961 30.9333 48.5207 30.9936C48.4453 31.0539 48.38 31.0941 48.3272 31.1142L48.2493 31.1494L49.134 32.6977H48.4705L47.641 31.2047H46.7563V32.6977H46.1456ZM41.7497 28.7718C41.9432 28.7718 42.1342 28.7994 42.3102 28.8497C42.4911 28.8999 42.6394 28.9628 42.7576 29.0357C42.8757 29.1111 42.9787 29.184 43.0642 29.2543C43.1522 29.3272 43.2175 29.3901 43.2577 29.4403L43.318 29.5157L42.931 29.9053C42.9209 29.8927 42.9058 29.8726 42.8857 29.845C42.8631 29.8173 42.8179 29.7721 42.7425 29.7017C42.6696 29.6339 42.5917 29.576 42.5037 29.5258C42.4208 29.478 42.3102 29.4303 42.1745 29.3875C42.0387 29.3448 41.893 29.3247 41.7422 29.3247C41.3425 29.3247 41.0032 29.4629 40.7217 29.7394C40.4427 30.0184 40.302 30.3577 40.302 30.7598C40.302 31.162 40.4427 31.4988 40.7217 31.7803C41.0007 32.0593 41.34 32.2 41.7422 32.2C41.893 32.2 42.0387 32.1774 42.177 32.1347C42.3152 32.0919 42.4283 32.0417 42.5188 31.9839C42.6093 31.9261 42.6897 31.8657 42.7601 31.8054C42.8304 31.7451 42.8807 31.6973 42.9134 31.6571L42.9561 31.5893L43.3457 31.9788C43.3331 32.0015 43.3105 32.0266 43.2803 32.0618C43.2502 32.097 43.1848 32.1598 43.0843 32.2478C42.9812 32.3332 42.8732 32.4136 42.7601 32.4815C42.647 32.5494 42.4962 32.6122 42.3127 32.665C42.1292 32.7178 41.9407 32.7454 41.7447 32.7454C41.1641 32.7454 40.679 32.5544 40.2869 32.1673C39.8923 31.7828 39.6988 31.3103 39.6988 30.7548C39.6988 30.1994 39.8923 29.7294 40.2869 29.3423C40.679 28.9578 41.1641 28.7642 41.7447 28.7642L41.7497 28.7718Z" fill="white"/>
</svg>
