<svg width="800" height="840" viewBox="0 0 800 840" fill="none" xmlns="http://www.w3.org/2000/svg">
<path fill-rule="evenodd" clip-rule="evenodd" d="M1158.95 36.4392L1167.48 21.3462L1179 0.985917L1140.36 1.51598L902.707 1.51596L864.378 1.51595L844.637 36.4392L836.74 50.4084L817 85.3316L711.266 272.381L692.102 306.284L573.277 516.493L554.113 550.397L548.521 560.287L528.78 595.211L428.716 772.229L328.652 595.211L308.912 560.287L40.4332 85.3316L291.225 85.3316L503.14 460.222L522.289 426.293L329.554 85.3316L567.204 85.3316L641.02 215.917L660.169 181.986L605.533 85.3316L585.792 50.4084L547.463 50.4084L309.813 50.4083L271.484 50.4083L20.6923 50.4083L-17.6367 50.4083L-80.9997 50.4083L-80.9997 85.3316L2.10412 85.3316L270.583 560.287L290.323 595.211L408.769 804.75L409.551 806.133L428.511 839.673L428.922 839.673L466.84 839.673L666.572 839.673L704.901 839.673L711.266 828.412L724.642 804.75L730.431 794.508L843.088 595.211L849.256 584.3L862.829 560.287L868.421 550.397L1131.31 85.3317L1151.05 50.4084L1158.95 36.4392ZM567.109 595.211L573.277 584.3L579.444 595.211L689.978 798.665L448.663 804.75L567.109 595.211ZM592.442 550.397L586.85 560.287L598.032 560.287L827.154 554.834L711.266 340.188L592.442 550.397ZM1120.62 36.4392L1112.72 50.4084L1092.98 85.3317L849.256 516.493L730.43 306.284L855.329 85.3317L875.07 50.4084L882.966 36.4392L1120.62 36.4392ZM804.759 595.211L711.266 760.605L617.773 595.211L804.759 595.211Z" fill="#6C6868" fill-opacity="0.2"/>
</svg>
