<svg width="1280" height="1268" viewBox="0 0 1280 1268" fill="none" xmlns="http://www.w3.org/2000/svg">
<path fill-rule="evenodd" clip-rule="evenodd" d="M1773.7 53.5739L1786.59 30.7666L1804 2.56642e-05L1745.61 0.801005L1386.49 0.800974L1328.57 0.800969L1298.74 53.5738L1286.81 74.6829L1256.98 127.456L1097.2 410.108L1068.24 461.339L888.685 778.989L859.726 830.221L851.276 845.167L821.446 897.939L670.238 1165.43L519.03 897.939L489.2 845.167L83.4989 127.456L462.473 127.456L782.7 693.957L811.636 642.687L520.393 127.456L879.508 127.456L991.053 324.785L1019.99 273.511L937.428 127.456L907.597 74.6828L849.678 74.6828L490.562 74.6828L432.643 74.6828L53.6683 74.6828L-4.25114 74.6828L-99.9996 74.6828L-99.9996 127.456L25.5795 127.456L431.28 845.167L461.111 897.939L640.096 1214.58L641.277 1216.67L669.928 1267.35L670.548 1267.35L727.847 1267.35L1029.66 1267.35L1087.58 1267.35L1097.2 1250.33L1117.41 1214.58L1126.16 1199.1L1296.4 897.94L1305.72 881.453L1326.23 845.167L1334.68 830.221L1731.93 127.456L1761.76 74.6829L1773.7 53.5739ZM879.365 897.939L888.685 881.453L898.005 897.939L1065.03 1205.38L700.38 1214.58L879.365 897.939ZM917.645 830.221L909.196 845.167L926.093 845.167L1272.32 836.927L1097.2 512.571L917.645 830.221ZM1715.78 53.5738L1703.84 74.6829L1674.01 127.456L1305.72 778.989L1126.16 461.339L1314.9 127.456L1344.73 74.6829L1356.66 53.5738L1715.78 53.5738ZM1238.48 897.94L1097.2 1147.87L955.924 897.939L1238.48 897.94Z" fill="#6C6868" fill-opacity="0.2"/>
</svg>
