<svg width="375" height="401" viewBox="0 0 375 401" fill="none" xmlns="http://www.w3.org/2000/svg">
<path fill-rule="evenodd" clip-rule="evenodd" d="M556.45 17.8685L560.513 10.6813L566 0.985958L547.599 1.23837L434.432 1.23836L416.18 1.23836L406.78 17.8685L403.019 24.5205L393.619 41.1506L343.27 130.222L334.144 146.366L277.56 246.466L268.435 262.61L265.772 267.32L256.372 283.95L208.722 368.245L161.073 283.95L151.672 267.32L23.8253 41.1506L143.25 41.1506L244.162 219.67L253.28 203.513L161.502 41.1506L274.669 41.1506L309.819 103.334L318.938 87.1765L292.92 41.1506L283.52 24.5205L265.268 24.5205L152.102 24.5204L133.85 24.5204L14.4249 24.5204L-3.82705 24.5204L-33.9999 24.5204L-33.9999 41.1506L5.57336 41.1506L133.42 267.32L142.821 283.95L199.223 383.731L199.596 384.389L208.624 400.361L208.82 400.361L226.876 400.361L321.986 400.361L340.238 400.361L343.27 394.998L349.639 383.731L352.396 378.854L406.042 283.95L408.979 278.755L415.442 267.32L418.105 262.61L543.289 41.1506L552.69 24.5205L556.45 17.8685ZM274.623 283.95L277.56 278.755L280.497 283.95L333.132 380.833L218.221 383.731L274.623 283.95ZM286.686 262.61L284.024 267.32L289.349 267.32L398.454 264.723L343.27 162.511L286.686 262.61ZM538.198 17.8685L534.438 24.5205L525.037 41.1506L408.979 246.466L352.395 146.366L411.871 41.1506L421.271 24.5205L425.032 17.8685L538.198 17.8685ZM387.79 283.95L343.27 362.709L298.749 283.95L387.79 283.95Z" fill="#6C6868" fill-opacity="0.2"/>
</svg>
