<svg width="179" height="58" viewBox="0 0 179 58" fill="none" xmlns="http://www.w3.org/2000/svg">
<path d="M4.00035 42.7523C4.7296 42.2476 4.92504 41.2646 4.4204 40.5353C4.16662 40.1707 3.80199 39.9753 3.38194 39.9169C3.24193 39.9169 3.2711 39.6369 3.69114 39.2985L3.49571 38.8493C2.28807 39.5786 1.95261 40.2232 1.69883 40.6462C1.4188 41.1217 1.44505 41.7955 1.78342 42.3293C2.28807 43.0585 3.2711 43.2277 4.00035 42.7493V42.7523Z" fill="#F9F3EF"/>
<path d="M17.2961 47.8862V38.0384L12.3867 39.1614V39.6369C13.536 40.2553 13.7898 40.5616 13.7898 41.5446V47.8862C13.7898 48.4638 13.784 48.9976 13.7081 49.4468L13.396 49.3184C13.2268 49.7939 12.6376 49.7939 12.6376 49.7939C11.2637 49.7939 11.2899 47.8308 11.2899 47.8308V43.6507C11.2899 40.3399 10.2807 38.0413 6.60524 38.0413C6.60524 38.0413 5.59595 37.9859 4.52833 38.3505L4.72377 38.7706C6.40688 38.2659 7.75454 39.6952 7.75454 42.3322V44.0707C2.84522 45.3046 0.488281 45.5847 0.488281 48.6446C0.488281 51.5062 3.71449 51.5062 3.71449 51.5062C5.0884 51.5062 6.29603 50.8324 7.05154 50.1323L6.71608 49.6568C6.49147 49.7677 6.21144 49.7968 5.90224 49.7968C4.07911 49.7968 4.07911 47.9445 4.07911 47.9445C4.07911 46.5123 5.0038 45.1967 7.75454 44.5783V48.983C7.75454 51.5091 10.5869 51.5091 10.5869 51.5091C11.4125 51.5091 12.133 51.2699 12.6901 50.9257V51.2582H18.4424V50.7828C17.4594 50.5027 17.2931 49.4351 17.2931 47.892L17.2961 47.8862Z" fill="#F9F3EF"/>
<path d="M25.4607 47.8308V42.303C25.4607 38.9076 24.1131 38.0384 21.9253 38.0384C20.636 38.0384 19.2038 38.8231 18.2237 39.8353L18.5591 40.3953C18.9237 40.1999 19.3175 40.0599 19.6822 40.0599C21.0852 40.0599 21.9545 41.0429 21.9545 42.3876V47.8308C21.9545 49.263 21.8991 50.4677 20.8315 50.7769V51.2524H26.61V50.7769C25.6008 50.5232 25.4607 49.3739 25.4607 47.8308Z" fill="#F9F3EF"/>
<path d="M39.8795 48.5338V30.3258L34.9702 31.3643V31.8397C36.1195 32.2598 36.3995 32.5398 36.3995 33.5229V38.8814C35.6411 38.4613 34.6872 38.1813 33.6225 38.0967V38.5722C35.0519 38.8522 36.3995 40.1153 36.3995 43.2015V47.1569C36.3995 49.1201 35.221 50.5232 33.3133 50.5232C31.041 50.5232 30.1163 48.84 30.1163 44.3245C30.1163 40.5091 30.8455 38.8814 32.4732 38.5722V38.0676C28.827 38.263 26.1317 40.2845 26.1317 44.5754C26.1317 48.8663 28.9378 51.5062 32.1057 51.5062C33.4242 51.5062 35.5011 50.8878 36.3966 49.2338V50.9724C36.3966 50.9724 36.3966 51.5908 37.1813 51.477L41.3059 50.8586V50.3802C40.1566 50.2402 39.8766 49.9047 39.8766 48.5279L39.8795 48.5338Z" fill="#F9F3EF"/>
<path d="M47.8487 49.123C45.9702 48.7029 44.5671 47.2707 44.3425 44.5229H53.2627C53.2627 40.3428 51.495 38.2397 47.7642 38.0705V38.5489C48.998 39.0243 49.8411 41.0458 49.8411 44.0474H44.3425C44.3425 41.6642 45.2409 39.0827 46.6149 38.5489V38.0996C43.1086 38.3797 40.7225 41.1304 40.7225 44.8321C40.7225 48.1137 43.2486 51.5091 46.9211 51.5091C50.5936 51.5091 52.3351 49.2922 52.7843 47.8337L52.3088 47.5799C51.6088 48.8984 49.3627 49.4585 47.8487 49.123Z" fill="#F9F3EF"/>
<path d="M65.7446 47.8308V42.303C65.7446 38.9076 64.3969 38.0384 62.2092 38.0384C60.9198 38.0384 59.4876 38.8231 58.5046 39.8353L58.84 40.3953C59.2046 40.1999 59.5984 40.0599 59.9631 40.0599C61.3661 40.0599 62.2354 41.0429 62.2354 42.3876V47.8308C62.2354 49.263 62.18 50.4677 61.1124 50.7769V51.2524H66.8909V50.7769C65.8817 50.5232 65.7416 49.3739 65.7416 47.8308H65.7446Z" fill="#F9F3EF"/>
<path d="M57.5828 47.8862V38.0384L52.6735 39.1614V39.6369C53.8228 40.2553 54.0766 40.5616 54.0766 41.5446V47.8862C54.0766 49.3184 54.0474 50.4677 52.9827 50.7769V51.2524H58.735V50.7769C57.752 50.4969 57.5857 49.4293 57.5857 47.8862H57.5828Z" fill="#F9F3EF"/>
<path d="M73.5446 38.0676V38.5459C74.7785 39.0214 75.6215 41.0429 75.6215 44.0445H70.123C70.123 41.6613 71.0214 39.0798 72.3953 38.5459V38.0967C68.8891 38.3768 66.503 41.1275 66.503 44.8292C66.503 48.1108 69.0291 51.5062 72.7016 51.5062C76.3741 51.5062 78.1156 49.2893 78.5648 47.8308L78.0893 47.577C77.3892 48.8955 75.1431 49.4555 73.6292 49.1201C71.7507 48.7 70.3476 47.2678 70.123 44.52H79.0432C79.0432 40.3399 77.2755 38.2367 73.5446 38.0676Z" fill="#F9F3EF"/>
<path d="M84.6263 38.5722C87.0387 38.8814 87.8234 41.1246 88.1617 42.023H88.6372V38.8814C88.6372 38.8814 87.4033 38.1521 84.6263 38.0676V38.5722Z" fill="#F9F3EF"/>
<path d="M86.6741 43.9891L83.8416 42.2214C81.6801 40.8475 82.0448 38.9952 83.4478 38.6014V38.0676C81.0647 38.2367 80.137 39.4415 80.137 39.4415C78.5939 41.46 79.3232 43.7324 82.0448 45.3892L84.8772 47.1015C86.7849 48.3646 86.7295 50.4969 85.271 50.9461V51.4799C87.6833 51.3107 88.608 49.9923 88.608 49.9923C90.0111 47.9737 89.1681 45.5322 86.6711 43.9891H86.6741Z" fill="#F9F3EF"/>
<path d="M79.6062 46.6815V50.2169C79.6062 50.2169 81.0938 51.3662 84.0954 51.5062V51.0015C81.2893 50.6369 80.4754 47.7199 80.0845 46.6815H79.6062Z" fill="#F9F3EF"/>
<path d="M95.5388 38.7705V38.2951H88.9172V38.7705C89.3373 38.7705 90.2357 38.7706 90.6849 39.8644L95.988 51.5062H96.5219L98.0649 47.437L94.8096 40.4799C94.8096 40.4799 94.0803 38.7676 95.5388 38.7676V38.7705Z" fill="#F9F3EF"/>
<path d="M93.6865 55.4325C93.5465 54.957 93.2373 54.5078 92.7327 54.2832C91.7496 53.834 90.6003 54.2832 90.1511 55.2662C89.7311 56.2492 90.1511 57.3985 91.1342 57.8478C91.808 58.157 92.7881 57.9878 93.2957 57.5677C93.8295 57.1477 94.6696 56.3601 95.3988 54.4553H94.8942C94.4449 55.6337 93.8003 55.7738 93.6865 55.4383V55.4325Z" fill="#F9F3EF"/>
<path d="M116.41 38.7705V38.2951H110.941V38.7705C113.662 38.7705 112.568 42.1659 112.315 42.866L112.764 43.1198C114.561 38.7997 115.765 38.7705 116.41 38.7705Z" fill="#F9F3EF"/>
<path d="M108.473 38.7705V38.2951H97.8695V38.7705C100.617 38.7414 99.7218 41.8276 99.3572 42.7552L99.6926 43.149C100.941 40.1415 101.947 39.2023 102.642 38.9076C103.001 39.071 103.388 39.4385 103.762 40.2611C103.762 40.2611 104.016 40.7366 108.98 51.512H109.43L111.028 47.5011L107.942 40.8795C107.942 40.8795 106.903 38.7764 108.476 38.7764L108.473 38.7705Z" fill="#F9F3EF"/>
<path d="M128.081 49.5139L127.603 49.3184C127.433 49.7939 126.844 49.7939 126.844 49.7939C125.47 49.7939 125.496 47.8308 125.496 47.8308V43.6507C125.496 40.3399 124.487 38.0413 120.812 38.0413C120.812 38.0413 119.802 37.9859 118.735 38.3505L118.93 38.7706C120.613 38.2659 121.961 39.6952 121.961 42.3322V44.0707C117.052 45.3046 114.695 45.5847 114.695 48.6446C114.695 51.5062 117.921 51.5062 117.921 51.5062C119.295 51.5062 120.503 50.8324 121.258 50.1323L120.923 49.6568C120.698 49.7677 120.418 49.7968 120.109 49.7968C118.286 49.7968 118.286 47.9445 118.286 47.9445C118.286 46.5123 119.21 45.1967 121.961 44.5783V48.983C121.961 51.5091 124.793 51.5091 124.793 51.5091C126.561 51.5091 127.85 50.4152 128.075 49.5168L128.081 49.5139Z" fill="#F9F3EF"/>
<path d="M115.99 42.3322C116.495 43.0615 117.478 43.2306 118.207 42.7523C118.936 42.2476 119.132 41.2646 118.627 40.5353C118.373 40.1707 118.009 39.9753 117.588 39.9169C117.448 39.9169 117.478 39.6369 117.898 39.2985L117.702 38.8493C116.495 39.5786 116.159 40.2232 115.905 40.6462C115.625 41.1217 115.652 41.7955 115.99 42.3293V42.3322Z" fill="#F9F3EF"/>
<path d="M131.87 47.8599V30.3258L126.961 31.3643V31.8397C128.084 32.2598 128.364 32.6798 128.364 33.6629V47.857C128.364 49.2893 128.308 50.4648 127.241 50.774V51.2495H132.993V50.774C132.01 50.5202 131.87 49.4001 131.87 47.857V47.8599Z" fill="#F9F3EF"/>
<path d="M140.116 38.5722C141.66 38.7968 142.08 40.2261 142.08 44.7708C142.08 49.3155 141.66 50.7478 140.116 50.9695V51.4741C144.043 51.2203 146.233 48.2771 146.233 44.7679C146.233 41.2588 144.046 38.3155 140.116 38.0617V38.5722Z" fill="#F9F3EF"/>
<path d="M132.879 44.7737C132.879 48.28 135.067 51.2262 138.967 51.4799V50.9753C137.424 50.7507 137.004 49.3214 137.004 44.7767C137.004 40.232 137.424 38.8026 138.967 38.578V38.0734C135.067 38.3272 132.879 41.2442 132.879 44.7796V44.7737Z" fill="#F9F3EF"/>
<path d="M156.417 41.4921C157.175 40.6491 157.091 39.3044 156.221 38.5459C155.603 38.0413 154.538 37.9275 153.949 38.1813C153.36 38.4351 152.435 38.7706 151.227 40.3691L151.507 40.7629C152.207 40.1182 152.826 40.1182 152.826 40.3428C152.826 40.8475 153.05 41.3258 153.471 41.7167C154.369 42.4751 155.658 42.3614 156.417 41.4921Z" fill="#F9F3EF"/>
<path d="M150.638 47.8308V38.0413L145.7 39.1643V39.6398C146.849 40.2291 147.103 40.6491 147.103 41.603V47.8308C147.103 49.2893 147.074 50.4386 145.98 50.7769V51.2524H151.787V50.7769C150.778 50.4969 150.638 49.403 150.638 47.8308Z" fill="#F9F3EF"/>
<path d="M163.263 38.0676V38.5459C164.497 39.0214 165.34 41.0429 165.34 44.0445H159.841C159.841 41.6613 160.74 39.0798 162.114 38.5459V38.0967C158.607 38.3768 156.221 41.1275 156.221 44.8292C156.221 48.1108 158.747 51.5062 162.42 51.5062C166.092 51.5062 167.834 49.2893 168.283 47.8308L167.808 47.577C167.108 48.8955 164.861 49.4555 163.347 49.1201C161.469 48.7 160.066 47.2678 159.841 44.52H168.761C168.761 40.3399 166.994 38.2367 163.263 38.0676Z" fill="#F9F3EF"/>
<path d="M169.322 46.6815V50.2169C169.322 50.2169 170.809 51.3662 173.811 51.5062V51.0015C171.005 50.6369 170.191 47.7199 169.8 46.6815H169.322Z" fill="#F9F3EF"/>
<path d="M177.877 42.023H178.353V38.8814C178.353 38.8814 177.119 38.1521 174.342 38.0676V38.5722C176.754 38.8814 177.539 41.1246 177.877 42.023Z" fill="#F9F3EF"/>
<path d="M176.389 43.9891L173.557 42.2214C171.396 40.8475 171.76 38.9952 173.163 38.6014V38.0676C170.78 38.2367 169.852 39.4415 169.852 39.4415C168.309 41.46 169.039 43.7324 171.76 45.3892L174.593 47.1015C176.5 48.3646 176.445 50.4969 174.986 50.9461V51.4799C177.399 51.3107 178.323 49.9923 178.323 49.9923C179.726 47.9737 178.883 45.5322 176.387 43.9891H176.389Z" fill="#F9F3EF"/>
<path d="M113.656 29.3778V28.0622H110.629L94.1183 1.12662V1.12079H94.1154L82.8616 0.826172L82.8178 0.904937L78.384 8.95295L78.314 9.09005L65.838 30.9209H78.384L93.777 3.08394L109.085 28.0622H99.6606L91.4784 15.1428L90.367 15.8458L98.1029 28.0622H88.9815L86.3124 23.7276L85.1923 24.416L88.223 29.3399M88.8502 9.29132L84.7722 2.24967L92.689 2.44803L88.8531 9.29132H88.8502ZM82.8178 20.0521L77.4418 29.6433L67.8653 29.6608L78.4919 11.3974L82.8178 20.0521ZM79.4312 10.3414L87.9868 10.8257L83.5908 18.6637L79.4283 10.3385L79.4312 10.3414ZM83.4012 2.50637L87.4384 9.47801L79.79 9.04338L83.4012 2.50637Z" fill="#F9F3EF"/>
</svg>
