<svg width="532" height="83" viewBox="0 0 532 83" fill="none" xmlns="http://www.w3.org/2000/svg">
<path d="M10.4661 37.0314C12.6393 35.5275 13.2217 32.598 11.7178 30.4249C10.9616 29.3383 9.87496 28.7559 8.62321 28.582C8.20596 28.582 8.29288 27.7475 9.54464 26.7391L8.96222 25.4005C5.36343 27.5736 4.36376 29.4947 3.60749 30.7552C2.77299 32.1721 2.85122 34.1801 3.85958 35.7709C5.36343 37.9441 8.29288 38.4483 10.4661 37.0227V37.0314Z" fill="#000957"/>
<path d="M50.0876 52.3306V22.9839L35.4577 26.3306V27.7475C38.8827 29.5904 39.6389 30.5031 39.6389 33.4326V52.3306C39.6389 54.0518 39.6215 55.6426 39.3955 56.9812L38.4654 56.5988C37.9612 58.0157 36.2053 58.0157 36.2053 58.0157C32.111 58.0157 32.1892 52.1654 32.1892 52.1654V39.7087C32.1892 29.8425 29.1816 22.9926 18.2287 22.9926C18.2287 22.9926 15.221 22.8274 12.0395 23.914L12.6219 25.1658C17.6376 23.6619 21.6536 27.9214 21.6536 35.7796V40.9605C7.02374 44.6375 0 45.472 0 54.5907C0 63.1183 9.61418 63.1183 9.61418 63.1183C13.7085 63.1183 17.3073 61.1103 19.5587 59.024L18.559 57.6071C17.8897 57.9374 17.0552 58.0243 16.1337 58.0243C10.7008 58.0243 10.7008 52.5044 10.7008 52.5044C10.7008 48.2363 13.4564 44.3159 21.6536 42.473V55.5991C21.6536 63.127 30.0943 63.127 30.0943 63.127C32.5543 63.127 34.7015 62.4142 36.3618 61.3884V62.3794H53.5039V60.9625C50.5744 60.128 50.0789 56.9464 50.0789 52.348L50.0876 52.3306Z" fill="#000957"/>
<path d="M74.4186 52.1654V35.6927C74.4186 25.5743 70.4026 22.9839 63.883 22.9839C60.0408 22.9839 55.7727 25.3222 52.8519 28.3386L53.8516 30.0076C54.9382 29.4252 56.1117 29.0079 57.1983 29.0079C61.3795 29.0079 63.9699 31.9374 63.9699 35.9448V52.1654C63.9699 56.4336 63.8048 60.0237 60.6232 60.9451V62.362H77.8436V60.9451C74.8359 60.1888 74.4186 56.7639 74.4186 52.1654Z" fill="#000957"/>
<path d="M117.387 54.2604V0.000244141L102.757 3.09486V4.51178C106.182 5.76354 107.016 6.59806 107.016 9.52752V25.4961C104.756 24.2443 101.914 23.4098 98.7409 23.1577V24.5747C103 25.4092 107.016 29.1731 107.016 38.37V50.1574C107.016 56.0076 103.505 60.1889 97.8195 60.1889C91.0478 60.1889 88.2922 55.1731 88.2922 41.7168C88.2922 30.3466 90.4654 25.4961 95.316 24.5747V23.0708C84.4501 23.6532 76.418 29.6773 76.418 42.4643C76.418 55.2514 84.7804 63.1183 94.2207 63.1183C98.1498 63.1183 104.339 61.2754 107.008 56.3466V61.5275C107.008 61.5275 107.008 63.3704 109.346 63.0314L121.638 61.1885V59.7629C118.213 59.3456 117.378 58.346 117.378 54.243L117.387 54.2604Z" fill="#000957"/>
<path d="M141.135 56.0163C135.537 54.7646 131.356 50.4964 130.687 42.3079H157.269C157.269 29.8512 152.001 23.5837 140.883 23.0795V24.5051C144.56 25.922 147.073 31.9461 147.073 40.8909H130.687C130.687 33.789 133.364 26.0959 137.458 24.5051V23.1664C127.01 24.0009 119.899 32.1982 119.899 43.2293C119.899 53.0086 127.427 63.127 138.371 63.127C149.315 63.127 154.505 56.5205 155.844 52.1741L154.427 51.4178C152.34 55.347 145.647 57.016 141.135 56.0163Z" fill="#000957"/>
<path d="M194.465 52.1654V35.6927C194.465 25.5743 190.449 22.9839 183.93 22.9839C180.088 22.9839 175.82 25.3222 172.89 28.3386L173.89 30.0076C174.976 29.4252 176.15 29.0079 177.236 29.0079C181.418 29.0079 184.008 31.9374 184.008 35.9448V52.1654C184.008 56.4336 183.843 60.0237 180.661 60.9451V62.362H197.882V60.9451C194.874 60.1888 194.457 56.7639 194.457 52.1654H194.465Z" fill="#000957"/>
<path d="M170.143 52.3306V22.9839L155.513 26.3306V27.7475C158.938 29.5904 159.694 30.5031 159.694 33.4326V52.3306C159.694 56.5987 159.608 60.0237 156.435 60.9451V62.362H173.577V60.9451C170.647 60.1106 170.152 56.9291 170.152 52.3306H170.143Z" fill="#000957"/>
<path d="M217.71 23.0708V24.4964C221.387 25.9133 223.899 31.9374 223.899 40.8822H207.513C207.513 33.7803 210.191 26.0872 214.285 24.4964V23.1577C203.836 23.9922 196.726 32.1895 196.726 43.2206C196.726 52.9999 204.254 63.1183 215.198 63.1183C226.142 63.1183 231.331 56.5118 232.67 52.1654L231.253 51.4092C229.167 55.3383 222.474 57.0073 217.962 56.0076C212.364 54.7559 208.183 50.4877 207.513 42.2992H234.096C234.096 29.8425 228.828 23.575 217.71 23.0708Z" fill="#000957"/>
<path d="M250.734 24.5747C257.923 25.4961 260.261 32.1808 261.269 34.8582H262.686V25.4961C262.686 25.4961 259.009 23.3229 250.734 23.0708V24.5747Z" fill="#000957"/>
<path d="M256.836 40.7171L248.395 35.4493C241.954 31.355 243.041 25.8351 247.222 24.6616V23.0708C240.12 23.575 237.355 27.1651 237.355 27.1651C232.757 33.1805 234.93 39.9521 243.041 44.8896L251.481 49.9922C257.166 53.7562 257.001 60.1106 252.655 61.4493V63.0401C259.844 62.5359 262.599 58.6068 262.599 58.6068C266.78 52.5914 264.268 45.3155 256.827 40.7171H256.836Z" fill="#000957"/>
<path d="M235.773 48.7405V59.2761C235.773 59.2761 240.207 62.701 249.152 63.1183V61.6144C240.789 60.5279 238.364 51.8351 237.199 48.7405H235.773Z" fill="#000957"/>
<path d="M283.253 25.1658V23.7488H263.521V25.1658C264.772 25.1658 267.45 25.1658 268.788 28.4255L284.592 63.1183H286.183L290.781 50.9919L281.08 30.2597C281.08 30.2597 278.907 25.1571 283.253 25.1571V25.1658Z" fill="#000957"/>
<path d="M277.733 74.8187C277.316 73.4018 276.395 72.0631 274.891 71.3938C271.961 70.0551 268.536 71.3938 267.198 74.3232C265.946 77.2527 267.198 80.6776 270.127 82.0163C272.135 82.9378 275.056 82.4336 276.568 81.1818C278.159 79.9301 280.663 77.583 282.836 71.9066H281.332C279.993 75.4185 278.072 75.8358 277.733 74.8361V74.8187Z" fill="#000957"/>
<path d="M345.45 25.1658V23.7488H329.151V25.1658C337.261 25.1658 334.001 35.2841 333.245 37.3704L334.584 38.1267C339.939 25.2527 343.529 25.1658 345.45 25.1658Z" fill="#000957"/>
<path d="M321.797 25.1658V23.7488H290.199V25.1658C298.387 25.0788 295.719 34.2758 294.632 37.0401L295.632 38.2136C299.352 29.2514 302.351 26.4523 304.42 25.5743C305.489 26.0611 306.645 27.1564 307.758 29.6077C307.758 29.6077 308.514 31.0247 323.309 63.1357H324.648L329.412 51.1831L320.215 31.4506C320.215 31.4506 317.12 25.1831 321.806 25.1831L321.797 25.1658Z" fill="#000957"/>
<path d="M380.23 57.1812L378.804 56.5988C378.3 58.0157 376.544 58.0157 376.544 58.0157C372.449 58.0157 372.528 52.1654 372.528 52.1654V39.7087C372.528 29.8425 369.52 22.9926 358.567 22.9926C358.567 22.9926 355.559 22.8274 352.378 23.914L352.96 25.1658C357.976 23.6619 361.992 27.9214 361.992 35.7796V40.9605C347.362 44.6375 340.338 45.472 340.338 54.5907C340.338 63.1183 349.953 63.1183 349.953 63.1183C354.047 63.1183 357.646 61.1103 359.897 59.024L358.897 57.6071C358.228 57.9374 357.394 58.0243 356.472 58.0243C351.039 58.0243 351.039 52.5044 351.039 52.5044C351.039 48.2363 353.795 44.3159 361.992 42.473V55.5991C361.992 63.127 370.433 63.127 370.433 63.127C375.701 63.127 379.543 59.8672 380.212 57.1899L380.23 57.1812Z" fill="#000957"/>
<path d="M344.198 35.7796C345.702 37.9528 348.631 38.457 350.805 37.0314C352.978 35.5275 353.56 32.598 352.056 30.4249C351.3 29.3383 350.213 28.7559 348.962 28.582C348.544 28.582 348.631 27.7475 349.883 26.7391L349.301 25.4005C345.702 27.5736 344.702 29.4947 343.946 30.7552C343.111 32.1721 343.19 34.1801 344.198 35.7709V35.7796Z" fill="#000957"/>
<path d="M391.521 52.2524V0.000244141L376.892 3.09486V4.51178C380.238 5.76354 381.073 7.01529 381.073 9.94475V52.2437C381.073 56.5118 380.908 60.015 377.726 60.9364V62.3533H394.868V60.9364C391.939 60.1801 391.521 56.8421 391.521 52.2437V52.2524Z" fill="#000957"/>
<path d="M416.096 24.5747C420.694 25.244 421.946 29.5034 421.946 43.0467C421.946 56.59 420.694 60.8582 416.096 61.5188V63.0227C427.796 62.2664 434.324 53.4954 434.324 43.038C434.324 32.5807 427.805 23.8097 416.096 23.0534V24.5747Z" fill="#000957"/>
<path d="M394.529 43.0554C394.529 53.5041 401.049 62.2838 412.671 63.0401V61.5362C408.072 60.8669 406.821 56.6074 406.821 43.0641C406.821 29.5208 408.072 25.2614 412.671 24.592V23.0882C401.049 23.8444 394.529 32.5372 394.529 43.0728V43.0554Z" fill="#000957"/>
<path d="M464.671 33.2761C466.931 30.7639 466.679 26.7565 464.088 24.4964C462.246 22.9926 459.073 22.6536 457.317 23.4098C455.561 24.1661 452.805 25.1658 449.206 29.9294L450.041 31.1029C452.127 29.1818 453.97 29.1818 453.97 29.8511C453.97 31.355 454.639 32.7806 455.891 33.9454C458.569 36.2056 462.411 35.8665 464.671 33.2761Z" fill="#000957"/>
<path d="M447.451 52.1654V22.9926L432.734 26.3393V27.7562C436.159 29.5121 436.915 30.7639 436.915 33.6064V52.1654C436.915 56.5118 436.828 59.9368 433.568 60.9451V62.362H450.875V60.9451C447.868 60.1106 447.451 56.8508 447.451 52.1654Z" fill="#000957"/>
<path d="M485.073 23.0708V24.4964C488.75 25.9133 491.262 31.9374 491.262 40.8822H474.876C474.876 33.7803 477.554 26.0872 481.648 24.4964V23.1577C471.199 23.9922 464.088 32.1895 464.088 43.2206C464.088 52.9999 471.616 63.1183 482.561 63.1183C493.505 63.1183 498.694 56.5118 500.033 52.1654L498.616 51.4092C496.53 55.3383 489.836 57.0073 485.325 56.0076C479.727 54.7559 475.545 50.4877 474.876 42.2992H501.459C501.459 29.8425 496.191 23.575 485.073 23.0708Z" fill="#000957"/>
<path d="M503.128 48.7405V59.2761C503.128 59.2761 507.561 62.701 516.506 63.1183V61.6144C508.143 60.5279 505.718 51.8351 504.553 48.7405H503.128Z" fill="#000957"/>
<path d="M528.623 34.8582H530.04V25.4961C530.04 25.4961 526.363 23.3229 518.088 23.0708V24.5747C525.277 25.4961 527.615 32.1808 528.623 34.8582Z" fill="#000957"/>
<path d="M524.19 40.7171L515.749 35.4493C509.308 31.355 510.395 25.8351 514.576 24.6616V23.0708C507.474 23.575 504.71 27.1651 504.71 27.1651C500.111 33.1805 502.284 39.9521 510.395 44.8896L518.835 49.9922C524.52 53.7562 524.355 60.1106 520.009 61.4493V63.0401C527.198 62.5359 529.953 58.6068 529.953 58.6068C534.135 52.5914 531.622 45.3155 524.181 40.7171H524.19Z" fill="#000957"/>
</svg>
