<svg width="431" height="67" viewBox="0 0 431 67" fill="none" xmlns="http://www.w3.org/2000/svg">
<path d="M8.46104 29.9354C10.2178 28.7197 10.6886 26.3516 9.47293 24.5949C8.86158 23.7165 7.9832 23.2457 6.97131 23.1051C6.63401 23.1051 6.70428 22.4305 7.71617 21.6154L7.24536 20.5332C4.33617 22.29 3.52806 23.843 2.91671 24.8619C2.24211 26.0073 2.30536 27.6305 3.12049 28.9165C4.33617 30.6733 6.70428 31.0808 8.46104 29.9284V29.9354Z" fill="#000957"/>
<path d="M40.4903 42.303V18.5797L28.6638 21.2852V22.4306C31.4324 23.9203 32.0438 24.6581 32.0438 27.0262V42.303C32.0438 43.6944 32.0297 44.9803 31.847 46.0625L31.0951 45.7533C30.6876 46.8987 29.2681 46.8987 29.2681 46.8987C25.9584 46.8987 26.0216 42.1695 26.0216 42.1695V32.0998C26.0216 24.1241 23.5903 18.5868 14.7362 18.5868C14.7362 18.5868 12.3048 18.4533 9.73293 19.3316L10.2037 20.3435C14.2583 19.1279 17.5048 22.5711 17.5048 28.9235V33.1116C5.67833 36.0841 0.000488281 36.7587 0.000488281 44.1301C0.000488281 51.0236 7.77239 51.0236 7.77239 51.0236C11.0821 51.0236 13.9913 49.4003 15.8113 47.7138L15.0032 46.5684C14.4621 46.8355 13.7875 46.9057 13.0427 46.9057C8.65077 46.9057 8.65077 42.4435 8.65077 42.4435C8.65077 38.9933 10.8783 35.8241 17.5048 34.3344V44.9452C17.5048 51.0306 24.3281 51.0306 24.3281 51.0306C26.3167 51.0306 28.0524 50.4544 29.3946 49.6252V50.4263H43.2519V49.2809C40.8838 48.6063 40.4832 46.0344 40.4832 42.3171L40.4903 42.303Z" fill="#000957"/>
<path d="M60.1589 42.1695V28.8533C60.1589 20.6738 56.9125 18.5797 51.6422 18.5797C48.5362 18.5797 45.0859 20.47 42.7249 22.9084L43.533 24.2576C44.4114 23.7868 45.36 23.4495 46.2384 23.4495C49.6184 23.4495 51.7124 25.8176 51.7124 29.057V42.1695C51.7124 45.6198 51.5789 48.5219 49.007 49.2668V50.4122H62.9276V49.2668C60.4962 48.6555 60.1589 45.8868 60.1589 42.1695Z" fill="#000957"/>
<path d="M94.8936 43.863V0.000244141L83.0671 2.50187V3.64728C85.8357 4.65917 86.5103 5.33378 86.5103 7.70189V20.6106C84.6833 19.5987 82.3855 18.9241 79.8206 18.7203V19.8657C83.2638 20.5403 86.5103 23.583 86.5103 31.0176V40.5462C86.5103 45.2754 83.6714 48.6555 79.0757 48.6555C73.6017 48.6555 71.3741 44.6009 71.3741 33.723C71.3741 24.5316 73.1309 20.6106 77.0519 19.8657V18.65C68.2681 19.1208 61.7752 23.9905 61.7752 34.3273C61.7752 44.6641 68.5352 51.0236 76.1665 51.0236C79.3428 51.0236 84.346 49.5338 86.5033 45.5495V49.7376C86.5033 49.7376 86.5033 51.2273 88.3936 50.9533L98.3298 49.4636V48.3111C95.5611 47.9738 94.8866 47.1657 94.8866 43.8489L94.8936 43.863Z" fill="#000957"/>
<path d="M114.091 45.2825C109.566 44.2706 106.186 40.8203 105.645 34.2008H127.134C127.134 24.1311 122.875 19.0646 113.888 18.657V19.8095C116.86 20.9549 118.891 25.8246 118.891 33.0554H105.645C105.645 27.3143 107.809 21.0954 111.119 19.8095V18.7273C102.673 19.4019 96.9244 26.0284 96.9244 34.9457C96.9244 42.8511 103.01 51.0306 111.857 51.0306C120.704 51.0306 124.899 45.69 125.981 42.1765L124.836 41.5652C123.149 44.7414 117.738 46.0906 114.091 45.2825Z" fill="#000957"/>
<path d="M157.202 42.1695V28.8533C157.202 20.6738 153.956 18.5797 148.686 18.5797C145.58 18.5797 142.129 20.47 139.761 22.9084L140.569 24.2576C141.448 23.7868 142.396 23.4495 143.275 23.4495C146.655 23.4495 148.749 25.8176 148.749 29.057V42.1695C148.749 45.6198 148.615 48.5219 146.043 49.2668V50.4122H159.964V49.2668C157.533 48.6555 157.195 45.8868 157.195 42.1695H157.202Z" fill="#000957"/>
<path d="M137.541 42.303V18.5797L125.714 21.2851V22.4306C128.483 23.9203 129.094 24.6581 129.094 27.0262V42.303C129.094 45.7533 129.024 48.5219 126.459 49.2668V50.4122H140.316V49.2668C137.948 48.5922 137.548 46.0203 137.548 42.303H137.541Z" fill="#000957"/>
<path d="M175.993 18.65V19.8024C178.965 20.9479 180.996 25.8176 180.996 33.0484H167.75C167.75 27.3073 169.914 21.0884 173.224 19.8024V18.7203C164.777 19.3949 159.029 26.0214 159.029 34.9387C159.029 42.8441 165.115 51.0236 173.962 51.0236C182.809 51.0236 187.004 45.683 188.086 42.1695L186.941 41.5581C185.254 44.7344 179.843 46.0836 176.196 45.2755C171.671 44.2636 168.291 40.8133 167.75 34.1938H189.239C189.239 24.1241 184.98 19.0576 175.993 18.65Z" fill="#000957"/>
<path d="M202.688 19.8657C208.5 20.6106 210.39 26.0143 211.205 28.1787H212.35V20.6106C212.35 20.6106 209.378 18.8538 202.688 18.65V19.8657Z" fill="#000957"/>
<path d="M207.621 32.9149L200.798 28.6565C195.591 25.3468 196.469 20.8846 199.849 19.9359V18.65C194.108 19.0576 191.874 21.9597 191.874 21.9597C188.156 26.8224 189.913 32.2965 196.469 36.2879L203.293 40.4127C207.888 43.4554 207.755 48.5922 204.241 49.6744V50.9603C210.053 50.5528 212.28 47.3765 212.28 47.3765C215.66 42.5138 213.629 36.6322 207.614 32.9149H207.621Z" fill="#000957"/>
<path d="M190.595 39.4008V47.9176C190.595 47.9176 194.179 50.6863 201.409 51.0236V49.8079C194.649 48.9295 192.689 41.9025 191.747 39.4008H190.595Z" fill="#000957"/>
<path d="M228.976 20.3435V19.1981H213.025V20.3435C214.037 20.3435 216.201 20.3435 217.283 22.9787L230.059 51.0236H231.345L235.062 41.2208L227.22 24.4614C227.22 24.4614 225.463 20.3365 228.976 20.3365V20.3435Z" fill="#000957"/>
<path d="M224.514 60.4819C224.177 59.3365 223.432 58.2544 222.216 57.7133C219.848 56.6311 217.08 57.7133 215.998 60.0814C214.986 62.4495 215.998 65.2182 218.366 66.3003C219.989 67.0452 222.35 66.6376 223.573 65.6257C224.859 64.6139 226.882 62.7165 228.639 58.1279H227.423C226.341 60.9668 224.788 61.3041 224.514 60.496V60.4819Z" fill="#000957"/>
<path d="M279.255 20.3435V19.1981H266.079V20.3435C272.635 20.3435 270 28.523 269.389 30.2095L270.471 30.8208C274.8 20.4138 277.702 20.3435 279.255 20.3435Z" fill="#000957"/>
<path d="M260.134 20.3435V19.1981H234.591V20.3435C241.211 20.2733 239.053 27.7079 238.175 29.9425L238.983 30.8911C241.991 23.6462 244.415 21.3835 246.087 20.6738C246.952 21.0673 247.886 21.9527 248.786 23.9343C248.786 23.9343 249.397 25.0797 261.357 51.0376H262.439L266.29 41.3754L258.855 25.4241C258.855 25.4241 256.354 20.3576 260.141 20.3576L260.134 20.3435Z" fill="#000957"/>
<path d="M307.37 46.2241L306.218 45.7533C305.81 46.8987 304.391 46.8987 304.391 46.8987C301.081 46.8987 301.144 42.1695 301.144 42.1695V32.0998C301.144 24.1241 298.713 18.5868 289.859 18.5868C289.859 18.5868 287.427 18.4533 284.855 19.3316L285.326 20.3435C289.381 19.1279 292.627 22.5711 292.627 28.9235V33.1116C280.801 36.0841 275.123 36.7587 275.123 44.1301C275.123 51.0236 282.895 51.0236 282.895 51.0236C286.205 51.0236 289.114 49.4003 290.934 47.7138L290.126 46.5684C289.585 46.8355 288.91 46.9057 288.165 46.9057C283.773 46.9057 283.773 42.4435 283.773 42.4435C283.773 38.9933 286.001 35.8241 292.627 34.3344V44.9452C292.627 51.0306 299.451 51.0306 299.451 51.0306C303.709 51.0306 306.815 48.3955 307.356 46.2311L307.37 46.2241Z" fill="#000957"/>
<path d="M278.243 28.9235C279.459 30.6803 281.827 31.0879 283.584 29.9354C285.34 28.7197 285.811 26.3516 284.595 24.5949C283.984 23.7165 283.106 23.2457 282.094 23.1051C281.757 23.1051 281.827 22.4305 282.839 21.6154L282.368 20.5332C279.459 22.29 278.651 23.843 278.039 24.8619C277.365 26.0073 277.428 27.6305 278.243 28.9165V28.9235Z" fill="#000957"/>
<path d="M316.498 42.2398V0.000244141L304.672 2.50187V3.64728C307.377 4.65917 308.052 5.67106 308.052 8.03918V42.2327C308.052 45.683 307.918 48.5149 305.346 49.2598V50.4052H319.204V49.2598C316.835 48.6484 316.498 45.95 316.498 42.2327V42.2398Z" fill="#000957"/>
<path d="M336.364 19.8657C340.081 20.4068 341.093 23.85 341.093 34.7981C341.093 45.7463 340.081 49.1965 336.364 49.7306V50.9463C345.822 50.3349 351.099 43.2446 351.099 34.7911C351.099 26.3376 345.829 19.2473 336.364 18.636V19.8657Z" fill="#000957"/>
<path d="M318.93 34.8052C318.93 43.2517 324.2 50.349 333.595 50.9603V49.7446C329.878 49.2036 328.866 45.7603 328.866 34.8122C328.866 23.8641 329.878 20.4208 333.595 19.8797V18.664C324.2 19.2754 318.93 26.3025 318.93 34.8192V34.8052Z" fill="#000957"/>
<path d="M375.631 26.8997C377.458 24.8689 377.254 21.6295 375.16 19.8024C373.67 18.5868 371.105 18.3127 369.686 18.9241C368.266 19.5354 366.039 20.3435 363.13 24.1943L363.804 25.143C365.491 23.59 366.98 23.59 366.98 24.1311C366.98 25.3468 367.522 26.4992 368.533 27.4408C370.698 29.2679 373.804 28.9938 375.631 26.8997Z" fill="#000957"/>
<path d="M361.71 42.1695V18.5868L349.813 21.2922V22.4376C352.582 23.857 353.193 24.8689 353.193 27.1668V42.1695C353.193 45.683 353.123 48.4517 350.488 49.2668V50.4122H364.479V49.2668C362.047 48.5922 361.71 45.9571 361.71 42.1695Z" fill="#000957"/>
<path d="M392.123 18.65V19.8024C395.096 20.9479 397.126 25.8176 397.126 33.0484H383.88C383.88 27.3073 386.045 21.0884 389.355 19.8024V18.7203C380.908 19.3949 375.16 26.0214 375.16 34.9387C375.16 42.8441 381.245 51.0236 390.092 51.0236C398.939 51.0236 403.134 45.683 404.217 42.1695L403.071 41.5581C401.385 44.7344 395.974 46.0836 392.327 45.2755C387.802 44.2636 384.422 40.8133 383.88 34.1938H405.369C405.369 24.1241 401.111 19.0576 392.123 18.65Z" fill="#000957"/>
<path d="M406.718 39.4008V47.9176C406.718 47.9176 410.302 50.6863 417.533 51.0236V49.8079C410.773 48.9295 408.812 41.9025 407.871 39.4008H406.718Z" fill="#000957"/>
<path d="M427.329 28.1787H428.474V20.6106C428.474 20.6106 425.502 18.8538 418.812 18.65V19.8657C424.623 20.6106 426.513 26.0143 427.329 28.1787Z" fill="#000957"/>
<path d="M423.745 32.9149L416.922 28.6565C411.715 25.3468 412.593 20.8846 415.973 19.9359V18.65C410.232 19.0576 407.997 21.9597 407.997 21.9597C404.28 26.8224 406.037 32.2965 412.593 36.2879L419.416 40.4127C424.012 43.4554 423.878 48.5922 420.365 49.6744V50.9603C426.176 50.5528 428.404 47.3765 428.404 47.3765C431.784 42.5138 429.753 36.6322 423.738 32.9149H423.745Z" fill="#000957"/>
</svg>
