<svg width="289" height="45" viewBox="0 0 289 45" fill="none" xmlns="http://www.w3.org/2000/svg">
<path d="M5.68394 20.1112C6.86416 19.2945 7.18045 17.7035 6.36374 16.5233C5.95303 15.9332 5.36292 15.6169 4.68311 15.5225C4.45651 15.5225 4.50372 15.0693 5.18352 14.5217L4.86722 13.7946C2.91278 14.9749 2.36988 16.0182 1.95916 16.7027C1.50596 17.4722 1.54845 18.5627 2.09607 19.4267C2.91278 20.6069 4.50372 20.8807 5.68394 20.1065V20.1112Z" fill="#000957"/>
<path d="M27.2017 28.4199V12.4823L19.2565 14.2998V15.0693C21.1165 16.0701 21.5272 16.5658 21.5272 18.1568V28.4199C21.5272 29.3547 21.5178 30.2186 21.395 30.9456L20.8899 30.7379C20.6161 31.5074 19.6625 31.5074 19.6625 31.5074C17.4389 31.5074 17.4814 28.3302 17.4814 28.3302V21.5652C17.4814 16.207 15.848 12.487 9.89968 12.487C9.89968 12.487 8.26626 12.3973 6.53842 12.9874L6.85471 13.6672C9.57866 12.8505 11.7597 15.1637 11.7597 19.4314V22.245C3.81447 24.242 0 24.6952 0 29.6474C0 34.2786 5.22129 34.2786 5.22129 34.2786C7.44482 34.2786 9.39927 33.188 10.622 32.055L10.0791 31.2855C9.71557 31.4649 9.26236 31.5121 8.76195 31.5121C5.8114 31.5121 5.8114 28.5143 5.8114 28.5143C5.8114 26.1964 7.30792 24.0673 11.7597 23.0665V30.195C11.7597 34.2833 16.3437 34.2833 16.3437 34.2833C17.6797 34.2833 18.8457 33.8962 19.7474 33.3391V33.8773H29.057V33.1078C27.4661 32.6546 27.197 30.9267 27.197 28.4294L27.2017 28.4199Z" fill="#000957"/>
<path d="M40.4154 28.3302V19.3842C40.4154 13.8891 38.2344 12.4822 34.6937 12.4822C32.6071 12.4822 30.2891 13.7522 28.7029 15.3903L29.2458 16.2967C29.8359 15.9804 30.4733 15.7538 31.0634 15.7538C33.3341 15.7538 34.7409 17.3448 34.7409 19.5211V28.3302C34.7409 30.6482 34.6512 32.5979 32.9234 33.0983V33.8678H42.2755V33.0983C40.642 32.6876 40.4154 30.8276 40.4154 28.3302Z" fill="#000957"/>
<path d="M63.7507 29.468V0.000244141L55.8055 1.68088V2.45038C57.6655 3.13019 58.1187 3.5834 58.1187 5.17434V13.8466C56.8913 13.1668 55.3476 12.7136 53.6244 12.5767V13.3462C55.9377 13.7994 58.1187 15.8435 58.1187 20.8382V27.2397C58.1187 30.4169 56.2115 32.6876 53.124 32.6876C49.4465 32.6876 47.95 29.9637 47.95 22.6557C47.95 16.4808 49.1302 13.8466 51.7644 13.3462V12.5295C45.8633 12.8458 41.5012 16.1173 41.5012 23.0617C41.5012 30.0061 46.0427 34.2785 51.1696 34.2785C53.3034 34.2785 56.6647 33.2777 58.114 30.601V33.4146C58.114 33.4146 58.114 34.4154 59.3839 34.2313L66.0592 33.2305V32.4563C64.1992 32.2297 63.746 31.6868 63.746 29.4585L63.7507 29.468Z" fill="#000957"/>
<path d="M76.6482 30.4216C73.6079 29.7418 71.3372 27.4238 70.9737 22.9768H85.4101C85.4101 16.2117 82.5493 12.808 76.5113 12.5342V13.3084C78.5082 14.0779 79.8725 17.3495 79.8725 22.2073H70.9737C70.9737 18.3503 72.4277 14.1723 74.6512 13.3084V12.5814C68.9767 13.0346 65.1151 17.4864 65.1151 23.4772C65.1151 28.7882 69.2033 34.2833 75.1469 34.2833C81.0905 34.2833 83.9089 30.6954 84.6359 28.335L83.8664 27.9242C82.7334 30.0581 79.0983 30.9645 76.6482 30.4216Z" fill="#000957"/>
<path d="M105.611 28.3302V19.3842C105.611 13.8891 103.43 12.4822 99.889 12.4822C97.8024 12.4822 95.4845 13.7522 93.8935 15.3903L94.4364 16.2967C95.0265 15.9804 95.6639 15.7538 96.254 15.7538C98.5247 15.7538 99.9315 17.3448 99.9315 19.5211V28.3302C99.9315 30.6482 99.8418 32.5979 98.114 33.0983V33.8678H107.466V33.0983C105.833 32.6876 105.606 30.8276 105.606 28.3302H105.611Z" fill="#000957"/>
<path d="M92.4017 28.4199V12.4822L84.4565 14.2998V15.0693C86.3165 16.0701 86.7272 16.5658 86.7272 18.1567V28.4199C86.7272 30.7379 86.68 32.5979 84.9569 33.0983V33.8678H94.2665V33.0983C92.6755 32.6451 92.4064 30.9173 92.4064 28.4199H92.4017Z" fill="#000957"/>
<path d="M118.234 12.5295V13.3037C120.231 14.0732 121.596 17.3447 121.596 22.2025H112.697C112.697 18.3456 114.151 14.1676 116.374 13.3037V12.5767C110.7 13.0299 106.838 17.4817 106.838 23.4724C106.838 28.7834 110.926 34.2785 116.87 34.2785C122.814 34.2785 125.632 30.6907 126.359 28.3302L125.59 27.9195C124.456 30.0534 120.821 30.9598 118.371 30.4169C115.331 29.7371 113.06 27.4191 112.697 22.972H127.133C127.133 16.207 124.272 12.8033 118.234 12.5295Z" fill="#000957"/>
<path d="M136.169 13.3462C140.073 13.8466 141.343 17.4769 141.891 18.931H142.66V13.8466C142.66 13.8466 140.663 12.6664 136.169 12.5295V13.3462Z" fill="#000957"/>
<path d="M139.483 22.1128L134.899 19.252C131.401 17.0285 131.991 14.0307 134.262 13.3934V12.5295C130.405 12.8033 128.904 14.753 128.904 14.753C126.406 18.0198 127.586 21.6974 131.991 24.3789L136.575 27.15C139.662 29.1942 139.573 32.6451 137.212 33.3721V34.2361C141.116 33.9622 142.613 31.8284 142.613 31.8284C144.884 28.5616 143.519 24.6102 139.478 22.1128H139.483Z" fill="#000957"/>
<path d="M128.044 26.4702V32.1919C128.044 32.1919 130.452 34.0519 135.31 34.2785V33.4618C130.768 32.8717 129.451 28.1508 128.819 26.4702H128.044Z" fill="#000957"/>
<path d="M153.83 13.6672V12.8977H143.113V13.6672C143.793 13.6672 145.247 13.6672 145.974 15.4375L154.557 34.2785H155.421L157.918 27.6929L152.65 16.4336C152.65 16.4336 151.469 13.6625 153.83 13.6625V13.6672Z" fill="#000957"/>
<path d="M150.832 40.6328C150.605 39.8633 150.105 39.1363 149.288 38.7728C147.697 38.0458 145.837 38.7728 145.11 40.3637C144.431 41.9547 145.11 43.8147 146.701 44.5417C147.792 45.0421 149.378 44.7683 150.199 44.0885C151.063 43.4087 152.423 42.1341 153.603 39.0513H152.786C152.059 40.9586 151.016 41.1852 150.832 40.6423V40.6328Z" fill="#000957"/>
<path d="M187.608 13.6672V12.8977H178.756V13.6672C183.161 13.6672 181.39 19.1623 180.98 20.2953L181.707 20.706C184.615 13.7144 186.564 13.6672 187.608 13.6672Z" fill="#000957"/>
<path d="M174.762 13.6672V12.8977H157.602V13.6672C162.049 13.62 160.6 18.6147 160.009 20.1159L160.552 20.7532C162.573 15.886 164.202 14.3659 165.325 13.8891C165.906 14.1534 166.534 14.7483 167.138 16.0796C167.138 16.0796 167.549 16.8491 175.584 34.288H176.311L178.898 27.7968L173.903 17.0804C173.903 17.0804 172.222 13.6766 174.767 13.6766L174.762 13.6672Z" fill="#000957"/>
<path d="M206.496 31.0542L205.722 30.7379C205.448 31.5074 204.494 31.5074 204.494 31.5074C202.271 31.5074 202.313 28.3302 202.313 28.3302V21.5652C202.313 16.207 200.68 12.487 194.731 12.487C194.731 12.487 193.098 12.3973 191.37 12.9874L191.686 13.6672C194.41 12.8505 196.591 15.1637 196.591 19.4314V22.245C188.646 24.242 184.832 24.6952 184.832 29.6474C184.832 34.2786 190.053 34.2786 190.053 34.2786C192.277 34.2786 194.231 33.188 195.454 32.055L194.911 31.2855C194.547 31.4649 194.094 31.5121 193.594 31.5121C190.643 31.5121 190.643 28.5143 190.643 28.5143C190.643 26.1964 192.14 24.0673 196.591 23.0665V30.195C196.591 34.2833 201.175 34.2833 201.175 34.2833C204.036 34.2833 206.123 32.5129 206.486 31.0589L206.496 31.0542Z" fill="#000957"/>
<path d="M186.928 19.4314C187.745 20.6116 189.336 20.8854 190.516 20.1112C191.696 19.2945 192.012 17.7035 191.196 16.5233C190.785 15.9332 190.195 15.6169 189.515 15.5225C189.288 15.5225 189.336 15.0693 190.015 14.5217L189.699 13.7946C187.745 14.9749 187.202 16.0182 186.791 16.7027C186.338 17.4722 186.38 18.5627 186.928 19.4267V19.4314Z" fill="#000957"/>
<path d="M212.628 28.3774V0.000244141L204.683 1.68088V2.45038C206.501 3.13019 206.954 3.80999 206.954 5.40093V28.3727C206.954 30.6907 206.864 32.5932 205.136 33.0936V33.8631H214.446V33.0936C212.855 32.6829 212.628 30.8701 212.628 28.3727V28.3774Z" fill="#000957"/>
<path d="M225.974 13.3462C228.472 13.7097 229.151 16.0229 229.151 23.378C229.151 30.7332 228.472 33.0511 225.974 33.4099V34.2266C232.329 33.8159 235.874 29.0525 235.874 23.3733C235.874 17.6941 232.333 12.9307 225.974 12.52V13.3462Z" fill="#000957"/>
<path d="M214.262 23.3828C214.262 29.0572 217.802 33.8253 224.114 34.2361V33.4193C221.617 33.0558 220.937 30.7426 220.937 23.3875C220.937 16.0323 221.617 13.7191 224.114 13.3556V12.5389C217.802 12.9496 214.262 17.6705 214.262 23.3922V23.3828Z" fill="#000957"/>
<path d="M252.354 18.0718C253.582 16.7074 253.445 14.5311 252.038 13.3037C251.037 12.487 249.314 12.3029 248.361 12.7136C247.407 13.1243 245.911 13.6672 243.956 16.2542L244.409 16.8915C245.542 15.8482 246.543 15.8482 246.543 16.2117C246.543 17.0284 246.907 17.8027 247.586 18.4353C249.04 19.6627 251.127 19.4786 252.354 18.0718Z" fill="#000957"/>
<path d="M243.002 28.3302V12.487L235.01 14.3045V15.074C236.87 16.0276 237.281 16.7074 237.281 18.2512V28.3302C237.281 30.6907 237.234 32.5507 235.463 33.0983V33.8678H244.862V33.0983C243.229 32.6451 243.002 30.8748 243.002 28.3302Z" fill="#000957"/>
<path d="M263.434 12.5295V13.3037C265.431 14.0732 266.796 17.3447 266.796 22.2025H257.897C257.897 18.3456 259.351 14.1676 261.574 13.3037V12.5767C255.9 13.0299 252.038 17.4817 252.038 23.4724C252.038 28.7834 256.126 34.2785 262.07 34.2785C268.014 34.2785 270.832 30.6907 271.559 28.3302L270.79 27.9195C269.656 30.0534 266.021 30.9598 263.571 30.4169C260.531 29.7371 258.26 27.4191 257.897 22.972H272.333C272.333 16.207 269.472 12.8033 263.434 12.5295Z" fill="#000957"/>
<path d="M273.24 26.4702V32.1919C273.24 32.1919 275.647 34.0519 280.505 34.2785V33.4618C275.964 32.8717 274.646 28.1508 274.014 26.4702H273.24Z" fill="#000957"/>
<path d="M287.086 18.931H287.855V13.8466C287.855 13.8466 285.859 12.6664 281.364 12.5295V13.3462C285.268 13.8466 286.538 17.4769 287.086 18.931Z" fill="#000957"/>
<path d="M284.678 22.1128L280.094 19.252C276.596 17.0285 277.186 14.0307 279.457 13.3934V12.5295C275.6 12.8033 274.099 14.753 274.099 14.753C271.602 18.0198 272.782 21.6974 277.186 24.3789L281.77 27.15C284.858 29.1942 284.768 32.6451 282.408 33.3721V34.2361C286.312 33.9622 287.808 31.8284 287.808 31.8284C290.079 28.5616 288.715 24.6102 284.674 22.1128H284.678Z" fill="#000957"/>
</svg>
