<svg width="121" height="39" viewBox="0 0 121 39" fill="none" xmlns="http://www.w3.org/2000/svg">
<path d="M2.6109 28.4648C3.10112 28.1256 3.2325 27.4647 2.89326 26.9745C2.72267 26.7294 2.47756 26.598 2.19519 26.5588C2.10107 26.5588 2.12068 26.3706 2.40304 26.1431L2.27166 25.8411C1.45986 26.3313 1.23436 26.7647 1.06376 27.049C0.875517 27.3687 0.893165 27.8216 1.12063 28.1805C1.45986 28.6707 2.12068 28.7844 2.6109 28.4628V28.4648Z" fill="#FF6500"/>
<path d="M11.5486 31.9159V25.296L8.24844 26.0509V26.3706C9.02102 26.7863 9.19162 26.9922 9.19162 27.653V31.9159C9.19162 32.3042 9.1877 32.663 9.13672 32.965L8.9269 32.8787C8.81317 33.1984 8.41707 33.1984 8.41707 33.1984C7.4935 33.1984 7.51115 31.8787 7.51115 31.8787V29.0687C7.51115 26.8431 6.83268 25.298 4.36197 25.298C4.36197 25.298 3.6835 25.2607 2.96582 25.5058L3.0972 25.7882C4.22863 25.449 5.13456 26.4098 5.13456 28.1824V29.3511C1.83439 30.1806 0.25 30.3688 0.25 32.4258C0.25 34.3494 2.41874 34.3494 2.41874 34.3494C3.34231 34.3494 4.15412 33.8964 4.66198 33.4258L4.43648 33.1062C4.28549 33.1807 4.09725 33.2003 3.8894 33.2003C2.66385 33.2003 2.66385 31.9552 2.66385 31.9552C2.66385 30.9924 3.28544 30.108 5.13456 29.6923V32.6532C5.13456 34.3514 7.03857 34.3514 7.03857 34.3514C7.5935 34.3514 8.07784 34.1906 8.45237 33.9592V34.1827H12.3192V33.8631C11.6584 33.6749 11.5466 32.9572 11.5466 31.9199L11.5486 31.9159Z" fill="#FF6500"/>
<path d="M17.0371 31.8787V28.1628C17.0371 25.8803 16.1312 25.296 14.6605 25.296C13.7938 25.296 12.831 25.8235 12.1722 26.5039L12.3977 26.8804C12.6428 26.749 12.9075 26.6549 13.1526 26.6549C14.0958 26.6549 14.6801 27.3157 14.6801 28.2197V31.8787C14.6801 32.8415 14.6429 33.6513 13.9252 33.8592V34.1788H17.8097V33.8592C17.1312 33.6886 17.0371 32.916 17.0371 31.8787Z" fill="#FF6500"/>
<path d="M26.7298 32.3513V20.1114L23.4296 20.8095V21.1291C24.2022 21.4115 24.3904 21.5997 24.3904 22.2606V25.8627C23.8806 25.5803 23.2394 25.3921 22.5237 25.3352V25.6548C23.4845 25.8431 24.3904 26.6922 24.3904 28.7668V31.4257C24.3904 32.7454 23.5982 33.6886 22.3158 33.6886C20.7883 33.6886 20.1667 32.5571 20.1667 29.5217C20.1667 26.9569 20.6569 25.8627 21.7511 25.6548V25.3156C19.3 25.447 17.4881 26.8059 17.4881 29.6903C17.4881 32.5748 19.3745 34.3494 21.504 34.3494C22.3903 34.3494 23.7865 33.9337 24.3885 32.8219V33.9906C24.3885 33.9906 24.3885 34.4063 24.9159 34.3298L27.6886 33.9141V33.5925C26.916 33.4984 26.7278 33.2729 26.7278 32.3473L26.7298 32.3513Z" fill="#FF6500"/>
<path d="M32.0869 32.7474C30.8241 32.465 29.8809 31.5022 29.7299 29.655H35.7263C35.7263 26.8451 34.538 25.4313 32.03 25.3176V25.6392C32.8595 25.9588 33.4262 27.3177 33.4262 29.3354H29.7299C29.7299 27.7334 30.3338 25.998 31.2574 25.6392V25.3372C28.9004 25.5254 27.2964 27.3745 27.2964 29.8629C27.2964 32.0689 28.9946 34.3514 31.4633 34.3514C33.9321 34.3514 35.1027 32.8611 35.4047 31.8806L35.0851 31.71C34.6145 32.5964 33.1046 32.9729 32.0869 32.7474Z" fill="#FF6500"/>
<path d="M44.1169 31.8787V28.1628C44.1169 25.8803 43.211 25.296 41.7403 25.296C40.8736 25.296 39.9108 25.8235 39.25 26.5039L39.4755 26.8804C39.7206 26.749 39.9853 26.6549 40.2304 26.6549C41.1736 26.6549 41.7579 27.3157 41.7579 28.2197V31.8787C41.7579 32.8415 41.7207 33.6513 41.003 33.8592V34.1788H44.8875V33.8592C44.2091 33.6886 44.1149 32.916 44.1149 31.8787H44.1169Z" fill="#FF6500"/>
<path d="M38.6303 31.9159V25.296L35.3302 26.0509V26.3706C36.1028 26.7863 36.2734 26.9922 36.2734 27.653V31.9159C36.2734 32.8787 36.2538 33.6513 35.538 33.8592V34.1788H39.4049V33.8592C38.7441 33.6709 38.6323 32.9532 38.6323 31.9159H38.6303Z" fill="#FF6500"/>
<path d="M49.3603 25.3156V25.6372C50.1897 25.9568 50.7564 27.3157 50.7564 29.3335H47.0602C47.0602 27.7314 47.6641 25.996 48.5877 25.6372V25.3352C46.2307 25.5235 44.6267 27.3726 44.6267 29.8609C44.6267 32.0669 46.3248 34.3494 48.7936 34.3494C51.2623 34.3494 52.433 32.8591 52.735 31.8787L52.4153 31.7081C51.9447 32.5944 50.4348 32.9709 49.4171 32.7454C48.1543 32.463 47.2112 31.5002 47.0602 29.6531H53.0565C53.0565 26.8431 51.8683 25.4293 49.3603 25.3156Z" fill="#FF6500"/>
<path d="M56.8097 25.6548C58.4313 25.8627 58.9588 27.3706 59.1863 27.9746H59.5059V25.8627C59.5059 25.8627 58.6764 25.3725 56.8097 25.3156V25.6548Z" fill="#FF6500"/>
<path d="M58.1862 29.2962L56.2822 28.1079C54.8292 27.1843 55.0743 25.9392 56.0175 25.6744V25.3156C54.4154 25.4293 53.7919 26.2392 53.7919 26.2392C52.7546 27.5961 53.2448 29.1236 55.0743 30.2374L56.9783 31.3885C58.2607 32.2375 58.2235 33.6709 57.243 33.9729V34.3317C58.8647 34.218 59.4863 33.3317 59.4863 33.3317C60.4295 31.9748 59.8628 30.3335 58.1842 29.2962H58.1862Z" fill="#FF6500"/>
<path d="M53.435 31.1061V33.4827C53.435 33.4827 54.435 34.2553 56.4528 34.3494V34.0102C54.5664 33.765 54.0193 31.8042 53.7566 31.1061H53.435Z" fill="#FF6500"/>
<path d="M64.1453 25.7882V25.4686H59.6941V25.7882C59.9765 25.7882 60.5804 25.7882 60.8824 26.5235L64.4473 34.3494H64.8061L65.8435 31.614L63.6551 26.9373C63.6551 26.9373 63.1649 25.7862 64.1453 25.7862V25.7882Z" fill="#FF6500"/>
<path d="M62.9002 36.9887C62.8061 36.6691 62.5982 36.3671 62.259 36.2161C61.5981 35.9142 60.8256 36.2162 60.5236 36.877C60.2412 37.5378 60.5236 38.3104 61.1844 38.6124C61.6374 38.8202 62.2962 38.7065 62.6374 38.4241C62.9963 38.1417 63.561 37.6123 64.0512 36.3318H63.712C63.41 37.124 62.9767 37.2182 62.9002 36.9927V36.9887Z" fill="#FF6500"/>
<path d="M78.1754 25.7882V25.4686H74.4988V25.7882C76.3283 25.7882 75.593 28.0707 75.4224 28.5413L75.7243 28.7119C76.9322 25.8078 77.7421 25.7882 78.1754 25.7882Z" fill="#FF6500"/>
<path d="M72.8399 25.7882V25.4686H65.7121V25.7882C67.5592 25.7686 66.9572 27.8432 66.7121 28.4667L66.9376 28.7315C67.7769 26.7098 68.4534 26.0784 68.9201 25.8803C69.1613 25.9902 69.4221 26.2372 69.673 26.7902C69.673 26.7902 69.8437 27.1098 73.1811 34.3533H73.4831L74.5576 31.6571L72.483 27.2059C72.483 27.2059 71.7849 25.7921 72.8418 25.7921L72.8399 25.7882Z" fill="#FF6500"/>
<path d="M86.0209 33.0101L85.6993 32.8787C85.5856 33.1984 85.1895 33.1984 85.1895 33.1984C84.2659 33.1984 84.2836 31.8787 84.2836 31.8787V29.0687C84.2836 26.8431 83.6051 25.298 81.1344 25.298C81.1344 25.298 80.4559 25.2607 79.7383 25.5058L79.8696 25.7882C81.0011 25.449 81.907 26.4098 81.907 28.1824V29.3511C78.6068 30.1806 77.0224 30.3688 77.0224 32.4258C77.0224 34.3494 79.1912 34.3494 79.1912 34.3494C80.1148 34.3494 80.9266 33.8964 81.4344 33.4258L81.2089 33.1062C81.0579 33.1807 80.8697 33.2003 80.6618 33.2003C79.4363 33.2003 79.4363 31.9552 79.4363 31.9552C79.4363 30.9924 80.0579 30.108 81.907 29.6923V32.6532C81.907 34.3514 83.811 34.3514 83.811 34.3514C84.9993 34.3514 85.866 33.616 86.017 33.0121L86.0209 33.0101Z" fill="#FF6500"/>
<path d="M77.8931 28.1824C78.2323 28.6726 78.8931 28.7864 79.3833 28.4648C79.8736 28.1256 80.005 27.4647 79.6657 26.9745C79.4951 26.7294 79.25 26.598 78.9676 26.5588C78.8735 26.5588 78.8931 26.3706 79.1755 26.1431L79.0441 25.8411C78.2323 26.3313 78.0068 26.7647 77.8362 27.049C77.648 27.3687 77.6656 27.8216 77.8931 28.1805V28.1824Z" fill="#FF6500"/>
<path d="M88.5681 31.8983V20.1114L85.268 20.8095V21.1291C86.0229 21.4115 86.2111 21.6939 86.2111 22.3547V31.8963C86.2111 32.8591 86.1739 33.6494 85.4562 33.8572V34.1768H89.3231V33.8572C88.6622 33.6866 88.5681 32.9336 88.5681 31.8963V31.8983Z" fill="#FF6500"/>
<path d="M94.1115 25.6548C95.1488 25.8058 95.4312 26.7667 95.4312 29.8217C95.4312 32.8768 95.1488 33.8396 94.1115 33.9886V34.3278C96.7509 34.1572 98.2235 32.1787 98.2235 29.8198C98.2235 27.4608 96.7528 25.4823 94.1115 25.3117V25.6548Z" fill="#FF6500"/>
<path d="M89.2466 29.8237C89.2466 32.1807 90.7172 34.1611 93.3389 34.3317V33.9925C92.3016 33.8415 92.0193 32.8807 92.0193 29.8256C92.0193 26.7706 92.3016 25.8098 93.3389 25.6588V25.3195C90.7172 25.4901 89.2466 27.451 89.2466 29.8276V29.8237Z" fill="#FF6500"/>
<path d="M105.069 27.6177C105.579 27.051 105.522 26.147 104.938 25.6372C104.522 25.298 103.806 25.2215 103.41 25.3921C103.014 25.5627 102.392 25.7882 101.581 26.8627L101.769 27.1275C102.239 26.6941 102.655 26.6941 102.655 26.8451C102.655 27.1843 102.806 27.5059 103.088 27.7687C103.692 28.2785 104.559 28.202 105.069 27.6177Z" fill="#FF6500"/>
<path d="M101.184 31.8787V25.298L97.8647 26.0529V26.3725C98.6372 26.7686 98.8078 27.051 98.8078 27.6922V31.8787C98.8078 32.8591 98.7882 33.6317 98.0529 33.8592V34.1788H101.957V33.8592C101.279 33.6709 101.184 32.9356 101.184 31.8787Z" fill="#FF6500"/>
<path d="M109.671 25.3156V25.6372C110.501 25.9568 111.067 27.3157 111.067 29.3335H107.371C107.371 27.7314 107.975 25.996 108.899 25.6372V25.3352C106.542 25.5235 104.938 27.3726 104.938 29.8609C104.938 32.0669 106.636 34.3494 109.104 34.3494C111.573 34.3494 112.744 32.8591 113.046 31.8787L112.726 31.7081C112.256 32.5944 110.746 32.9709 109.728 32.7454C108.465 32.463 107.522 31.5002 107.371 29.6531H113.367C113.367 26.8431 112.179 25.4293 109.671 25.3156Z" fill="#FF6500"/>
<path d="M113.744 31.1061V33.4827C113.744 33.4827 114.744 34.2553 116.762 34.3494V34.0102C114.875 33.765 114.328 31.8042 114.065 31.1061H113.744Z" fill="#FF6500"/>
<path d="M119.495 27.9746H119.815V25.8627C119.815 25.8627 118.985 25.3725 117.119 25.3156V25.6548C118.74 25.8627 119.268 27.3706 119.495 27.9746Z" fill="#FF6500"/>
<path d="M118.495 29.2962L116.591 28.1079C115.138 27.1843 115.383 25.9392 116.326 25.6744V25.3156C114.724 25.4293 114.101 26.2392 114.101 26.2392C113.063 27.5961 113.554 29.1236 115.383 30.2374L117.287 31.3885C118.57 32.2375 118.532 33.6709 117.552 33.9729V34.3317C119.174 34.218 119.795 33.3317 119.795 33.3317C120.738 31.9748 120.172 30.3335 118.493 29.2962H118.495Z" fill="#FF6500"/>
<path d="M76.3244 19.4741V18.5898H74.289L63.1904 0.483007V0.479087H63.1885L55.6234 0.281036L55.594 0.333984L52.6134 5.74406L52.5664 5.83622L44.1797 20.5115H52.6134L62.961 1.79876L73.2517 18.5898H66.9161L61.4158 9.90505L60.6687 10.3776L65.869 18.5898H59.7373L57.9431 15.6759L57.1901 16.1387L59.2275 19.4487M59.6491 5.97152L56.9078 1.23795L62.2296 1.37129L59.651 5.97152H59.6491ZM55.594 13.2052L51.9801 19.6526L45.5425 19.6644L52.686 7.38728L55.594 13.2052ZM53.3174 6.67744L59.0686 7.00294L56.1136 12.2718L53.3154 6.67547L53.3174 6.67744ZM55.9861 1.41051L58.7 6.09701L53.5586 5.80484L55.9861 1.41051Z" fill="#FF6500"/>
</svg>
